<?xml version="1.0" encoding="UTF-8"?>
<!DOCTYPE svg PUBLIC "-//W3C//DTD SVG 1.1//EN" "http://www.w3.org/Graphics/SVG/1.1/DTD/svg11.dtd">
<!-- Creator: CorelDRAW -->
<svg xmlns="http://www.w3.org/2000/svg" xml:space="preserve" width="10.8374mm" height="10.8373mm" version="1.1" style="shape-rendering:geometricPrecision; text-rendering:geometricPrecision; image-rendering:optimizeQuality; fill-rule:evenodd; clip-rule:evenodd"
viewBox="0 0 137.8 137.8"
 xmlns:xlink="http://www.w3.org/1999/xlink"
 xmlns:xodm="http://www.corel.com/coreldraw/odm/2003">
 <defs>
  <style type="text/css">
   <![CDATA[
    .fil0 {fill:url(#id0)}
   ]]>
  </style>
  <linearGradient id="id0" gradientUnits="userSpaceOnUse" x1="68.83" y1="0" x2="68.83" y2="137.67">
   <stop offset="0" style="stop-opacity:1; stop-color:#E3F5EE"/>
   <stop offset="0.458824" style="stop-opacity:1; stop-color:#29B4B9"/>
   <stop offset="1" style="stop-opacity:1; stop-color:#006D73"/>
  </linearGradient>
 </defs>
 <g id="Layer_x0020_1">
  <metadata id="CorelCorpID_0Corel-Layer"/>
  <path class="fil0" d="M127.85 68.91c0,32.55 -26.4,58.94 -58.94,58.94 -32.56,0 -58.96,-26.4 -58.96,-58.94 0,-32.56 26.4,-58.96 58.96,-58.96 32.55,0 58.94,26.4 58.94,58.96zm-73.95 34.01l29.9 0c10.58,0 19.23,-8.65 19.23,-19.23l0 -29.75c0,-10.58 -8.65,-19.23 -19.23,-19.23l-29.9 0c-10.56,0 -19.23,8.65 -19.23,19.23l0 29.75c0,10.58 8.66,19.23 19.23,19.23zm14.95 -16.58c9.68,0 17.52,-7.84 17.52,-17.52 0,-9.68 -7.84,-17.52 -17.52,-17.52 -9.68,0 -17.52,7.84 -17.52,17.52 0,9.68 7.84,17.52 17.52,17.52zm18.33 -31.66c2.23,0 4.02,-1.81 4.02,-4.03 0,-2.23 -1.8,-4.03 -4.02,-4.03 -2.22,0 -4.03,1.8 -4.03,4.03 0,2.22 1.81,4.03 4.03,4.03zm-18.33 4.03c5.6,0 10.13,4.52 10.13,10.12 0,5.6 -4.53,10.13 -10.13,10.13 -5.58,0 -10.12,-4.53 -10.12,-10.13 0,-5.6 4.53,-10.12 10.12,-10.12zm-14.95 -16.6l29.9 0c6.51,0 11.84,5.33 11.84,11.84l0 29.75c0,6.51 -5.33,11.84 -11.84,11.84l-29.9 0c-6.5,0 -11.82,-5.33 -11.82,-11.84l0 -29.75c0,-6.51 5.33,-11.84 11.82,-11.84zm83.9 26.8c0,38.05 -30.84,68.89 -68.89,68.89 -38.07,0 -68.91,-30.84 -68.91,-68.89 0,-38.07 30.84,-68.91 68.91,-68.91 38.05,0 68.89,30.84 68.89,68.91z"/>
 </g>
</svg>
