<?xml version="1.0" encoding="UTF-8"?>
<!DOCTYPE svg PUBLIC "-//W3C//DTD SVG 1.1//EN" "http://www.w3.org/Graphics/SVG/1.1/DTD/svg11.dtd">
<!-- Creator: CorelDRAW -->
<svg xmlns="http://www.w3.org/2000/svg" xml:space="preserve" width="8.5328mm" height="8.5328mm" version="1.1" style="shape-rendering:geometricPrecision; text-rendering:geometricPrecision; image-rendering:optimizeQuality; fill-rule:evenodd; clip-rule:evenodd"
viewBox="0 0 853.28 853.28"
 xmlns:xlink="http://www.w3.org/1999/xlink"
 xmlns:xodm="http://www.corel.com/coreldraw/odm/2003">
 <defs>
  <style type="text/css">
   <![CDATA[
    .fil0 {fill:#29B4B9}
   ]]>
  </style>
 </defs>
 <g id="Layer_x0020_1">
  <metadata id="CorelCorpID_0Corel-Layer"/>
  <path class="fil0" d="M424.36 0l61.81 0c16.44,0 29.77,13.33 29.77,29.76 0,16.44 -13.33,29.77 -29.77,29.77l-59.53 0c-94.38,0 -162.18,0.06 -213.77,7 -50.74,6.82 -81.33,19.8 -103.94,42.4 -22.6,22.61 -35.58,53.2 -42.4,103.94 -6.94,51.59 -7,119.39 -7,213.77 0,94.38 0.06,162.18 7,213.77 6.82,50.74 19.8,81.33 42.4,103.94 22.61,22.61 53.2,35.58 103.94,42.4 51.59,6.94 119.39,7 213.77,7 94.38,0 162.18,-0.06 213.77,-7 50.74,-6.82 81.33,-19.79 103.94,-42.4 22.61,-22.61 35.58,-53.2 42.4,-103.94 6.94,-51.59 7,-119.39 7,-213.77l0 -59.53c0,-16.44 13.33,-29.77 29.77,-29.77 16.43,0 29.76,13.33 29.76,29.77l0 61.81c0,91.61 0,163.41 -7.53,219.42 -7.71,57.34 -23.8,102.59 -59.31,138.1 -35.51,35.51 -80.76,51.6 -138.1,59.31 -56.01,7.53 -127.81,7.53 -219.42,7.53l-4.56 0c-91.61,0 -163.41,0 -219.43,-7.53 -57.33,-7.71 -102.58,-23.8 -138.09,-59.31 -35.51,-35.51 -51.6,-80.76 -59.31,-138.1 -7.53,-56.01 -7.53,-127.81 -7.53,-219.42l0 -4.56c0,-91.61 0,-163.41 7.53,-219.43 7.71,-57.33 23.8,-102.58 59.31,-138.09 35.51,-35.51 80.76,-51.6 138.09,-59.31 56.02,-7.53 127.82,-7.53 219.43,-7.53zm191.61 40.72c54.29,-54.29 142.31,-54.29 196.59,0 54.29,54.28 54.29,142.3 0,196.59l-263.84 263.85c-14.74,14.73 -23.97,23.97 -34.27,32 -12.13,9.46 -25.26,17.57 -39.15,24.19 -11.79,5.62 -24.18,9.75 -43.95,16.34l-115.27 38.43c-21.28,7.09 -44.75,1.55 -60.61,-14.31 -15.86,-15.86 -21.4,-39.33 -14.31,-60.61l38.43 -115.27c6.59,-19.77 10.72,-32.16 16.34,-43.95 6.62,-13.89 14.73,-27.02 24.19,-39.15 8.03,-10.3 17.27,-19.53 32.01,-34.27l263.84 -263.84zm154.5 42.09c-31.04,-31.04 -81.37,-31.04 -112.4,0l-14.95 14.95c0.9,3.8 2.16,8.33 3.91,13.39 5.69,16.39 16.45,37.98 36.79,58.31 20.33,20.34 41.92,31.1 58.31,36.79 5.06,1.75 9.59,3.01 13.39,3.91l14.95 -14.95c31.04,-31.04 31.04,-81.36 0,-112.4zm-61.85 174.25c-20.47,-8.81 -44.33,-22.93 -66.9,-45.5 -22.57,-22.57 -36.69,-46.43 -45.5,-66.91l-200.63 200.64c-16.54,16.53 -23.02,23.09 -28.53,30.15 -6.8,8.72 -12.64,18.16 -17.4,28.15 -3.85,8.09 -6.81,16.82 -14.21,38.99l-17.14 51.43 40.96 40.96 51.43 -17.14c22.17,-7.4 30.9,-10.36 38.99,-14.21 9.99,-4.76 19.43,-10.6 28.15,-17.4 7.06,-5.51 13.62,-11.99 30.15,-28.53l200.63 -200.63z"/>
 </g>
</svg>
