<?xml version="1.0" encoding="UTF-8"?>
<!DOCTYPE svg PUBLIC "-//W3C//DTD SVG 1.1//EN" "http://www.w3.org/Graphics/SVG/1.1/DTD/svg11.dtd">
<!-- Creator: CorelDRAW -->
<svg xmlns="http://www.w3.org/2000/svg" xml:space="preserve" width="4.7626mm" height="4.2334mm" version="1.1" style="shape-rendering:geometricPrecision; text-rendering:geometricPrecision; image-rendering:optimizeQuality; fill-rule:evenodd; clip-rule:evenodd"
viewBox="0 0 476.26 423.34"
 xmlns:xlink="http://www.w3.org/1999/xlink"
 xmlns:xodm="http://www.corel.com/coreldraw/odm/2003">
 <defs>
  <style type="text/css">
   <![CDATA[
    .fil0 {fill:#29B4B9}
   ]]>
  </style>
 </defs>
 <g id="Layer_x0020_1">
  <metadata id="CorelCorpID_0Corel-Layer"/>
  <path class="fil0" d="M96.9 42.75c-36.75,17.15 -63.67,57.95 -63.67,106.6 0,49.71 19.92,88.02 48.47,120.85 23.54,27.06 52.03,49.49 79.81,71.36 6.6,5.2 13.16,10.36 19.6,15.55 11.66,9.38 22.05,17.61 32.07,23.59 10.02,5.98 18.09,8.71 24.95,8.71 6.86,0 14.93,-2.73 24.95,-8.71 10.02,-5.98 20.41,-14.21 32.07,-23.59 6.44,-5.19 13,-10.35 19.6,-15.55 27.78,-21.87 56.27,-44.3 79.8,-71.36 28.56,-32.83 48.48,-71.14 48.48,-120.85 0,-48.65 -26.92,-89.45 -63.67,-106.6 -35.7,-16.66 -83.67,-12.25 -129.26,36.11 -3.13,3.33 -7.45,5.2 -11.97,5.2 -4.52,0 -8.84,-1.87 -11.97,-5.2 -45.59,-48.36 -93.56,-52.77 -129.26,-36.11zm141.23 0.78c-51.21,-46.78 -108.56,-53.33 -155.04,-31.64 -49.09,22.92 -83.09,76.12 -83.09,137.46 0,60.3 24.6,106.29 56.86,143.38 25.83,29.7 57.45,54.56 85.37,76.52 6.33,4.97 12.47,9.8 18.31,14.5 11.35,9.13 23.53,18.88 35.88,26.24 12.33,7.36 26.42,13.35 41.71,13.35 15.29,0 29.38,-5.99 41.71,-13.35 12.35,-7.37 24.53,-17.11 35.88,-26.24 5.84,-4.7 11.98,-9.53 18.31,-14.5 27.92,-21.96 59.54,-46.82 85.37,-76.52 32.26,-37.09 56.86,-83.08 56.86,-143.38 0,-61.34 -34,-114.54 -83.09,-137.46 -46.48,-21.69 -103.82,-15.14 -155.04,31.64z"/>
 </g>
</svg>
