<?xml version="1.0" encoding="UTF-8"?>
<!DOCTYPE svg PUBLIC "-//W3C//DTD SVG 1.1//EN" "http://www.w3.org/Graphics/SVG/1.1/DTD/svg11.dtd">
<!-- Creator: CorelDRAW -->
<svg xmlns="http://www.w3.org/2000/svg" xml:space="preserve" width="2480px" height="3508px" version="1.1" style="shape-rendering:geometricPrecision; text-rendering:geometricPrecision; image-rendering:optimizeQuality; fill-rule:evenodd; clip-rule:evenodd"
viewBox="0 0 2480 3507.43"
 xmlns:xlink="http://www.w3.org/1999/xlink"
 xmlns:xodm="http://www.corel.com/coreldraw/odm/2003">
 <defs>
  <style type="text/css">
   <![CDATA[
    .fil1 {fill:#FEFEFE;fill-rule:nonzero}
    .fil0 {fill:url(#id0)}
   ]]>
  </style>
  <linearGradient id="id0" gradientUnits="userSpaceOnUse" x1="525.02" y1="1544.37" x2="525.02" y2="1887.1">
   <stop offset="0" style="stop-opacity:1; stop-color:#E3F5EE"/>
   <stop offset="0.458824" style="stop-opacity:1; stop-color:#29B4B9"/>
   <stop offset="1" style="stop-opacity:1; stop-color:#006D73"/>
  </linearGradient>
 </defs>
 <g id="Layer_x0020_1">
  <metadata id="CorelCorpID_0Corel-Layer"/>
  <path class="fil0" d="M671.95 1715.92c0,81.03 -65.71,146.74 -146.74,146.74 -81.06,0 -146.78,-65.71 -146.78,-146.74 0,-81.06 65.72,-146.78 146.78,-146.78 81.03,0 146.74,65.72 146.74,146.78zm-184.11 84.68l74.44 0c26.34,0 47.87,-21.53 47.87,-47.87l0 -74.06c0,-26.34 -21.53,-47.88 -47.87,-47.88l-74.44 0c-26.3,0 -47.87,21.54 -47.87,47.88l0 74.06c0,26.34 21.57,47.87 47.87,47.87zm37.22 -41.28c24.1,0 43.62,-19.52 43.62,-43.62 0,-24.11 -19.52,-43.63 -43.62,-43.63 -24.1,0 -43.62,19.52 -43.62,43.63 0,24.1 19.52,43.62 43.62,43.62zm45.64 -78.83c5.55,0 10.02,-4.51 10.02,-10.02 0,-5.55 -4.47,-10.02 -10.02,-10.02 -5.52,0 -10.03,4.47 -10.03,10.02 0,5.51 4.51,10.02 10.03,10.02zm-45.64 10.02c13.93,0 25.22,11.25 25.22,25.19 0,13.93 -11.29,25.22 -25.22,25.22 -13.9,0 -25.18,-11.29 -25.18,-25.22 0,-13.94 11.28,-25.19 25.18,-25.19zm-37.22 -41.31l74.44 0c16.2,0 29.46,13.26 29.46,29.47l0 74.06c0,16.2 -13.26,29.47 -29.46,29.47l-74.44 0c-16.17,0 -29.43,-13.27 -29.43,-29.47l0 -74.06c0,-16.21 13.26,-29.47 29.43,-29.47zm208.89 66.72c0,94.74 -76.78,171.52 -171.52,171.52 -94.77,0 -171.55,-76.78 -171.55,-171.52 0,-94.77 76.78,-171.55 171.55,-171.55 94.74,0 171.52,76.78 171.52,171.55z"/>
  <path class="fil1" d="M967.15 1756.34c-10.65,36.14 -40.38,65.34 -73.87,66.95 -52.31,2.38 -73.84,-51 -73.58,-95.9 0.26,-55.5 27.9,-114.48 77.04,-116.9 34.01,-0.26 25.78,48.92 7.71,60.58 5.85,8.49 14.09,11.95 22.58,11.69 15.68,-0.78 29.21,-11.13 31.33,-32.93 2.68,-26.82 -18.33,-58.19 -60.54,-57.93 -78.38,0.56 -122.49,70.41 -120.63,142.68 1.61,62.67 31.89,112.88 99.62,113.96 57.41,0.79 89.52,-39.86 103.86,-90.86 1.61,-5.85 -11.13,-8.75 -13.52,-1.34l0 0zm75.7 0c-6.11,20.45 -21.53,63.22 -30.81,61.92 -14.9,-1.87 -13.04,-66.95 -11.17,-97.76 21.27,-30.02 45.71,-91.12 17.28,-129.12 -2.64,-3.46 -11.44,-1.6 -15.16,1.34 -9.28,-1.6 -20.97,0.78 -23.88,10.36 -4.55,14.34 -8.79,45.41 -11.7,79.95 -3.46,43.02 -4.8,109.45 3.47,133.63 4.77,13.82 15.12,25.22 32.37,24.96 29.24,-0.26 44.93,-55.51 52.9,-83.94 1.83,-6.11 -11.17,-9.05 -13.3,-1.34l0 0zm-31.63 -138.4c6.93,24.44 2.42,54.73 -9.27,79.43 1.6,-27.61 5.29,-55.25 9.27,-79.43zm166.31 138.4c-4.77,16.73 -13.57,34.54 -34.28,33.75 0,0 -0.26,-0.26 -0.26,-0.26 0,-0.26 0,-0.56 0.26,-0.82 3.99,-17.51 3.99,-36.1 1.6,-50.18 -1.86,-9.31 -5.32,-20.19 -13.26,-25.78 -1.6,-1.34 -3.46,-2.12 -5.07,-2.38 -1.6,-10.62 -14.6,-16.47 -25.78,-16.73 -42.46,-1.08 -61.61,44.33 -60.79,80.73 0.78,35.09 19.11,68.28 53.64,68.28 22.84,0.27 37.7,-20.71 45.41,-39.86 1.08,0 2.39,0.26 3.73,0.26 29.21,1.34 41.43,-21.49 48.35,-45.67 1.61,-5.85 -11.17,-8.75 -13.56,-1.34l0.01 0zm-76.49 65.9c-27.9,0.52 -24.99,-102.82 2.65,-108.93 2.9,-0.52 5.85,0 7.71,1.34 -3.73,3.43 -6.37,8.76 -7.71,14.87 -5.59,22.05 2.12,56.33 22.57,68.81 -5.58,14.34 -15.94,23.65 -25.22,23.91l0 0zm29.21 -37.47c-11.44,-9.84 -16.21,-60.02 -7.45,-61.1 4.25,-0.52 7.97,14.34 8.49,17.55 2.42,11.95 2.42,28.16 -1.04,43.55zm204.82 -28.43c-2.12,7.19 -18.07,61.66 -31.36,62.44 -16.21,0.78 -12.75,-80.77 -13.01,-92.17 0,-18.33 -0.82,-33.49 -24.96,-32.97 -10.65,0.3 -20.19,9.84 -23.91,15.69 -13.82,22.31 -22.32,45.15 -29.51,71.45l0 -70.11c0,-15.16 -36.92,-18.07 -36.92,-2.94 0,36.13 0,66.42 0,102.82 0,19.67 13.82,30.28 27.09,30.54 9.83,0.27 11.43,-0.52 13.56,-9.83 8.49,-36.66 27.64,-102.26 36.39,-100.96 2.65,0.56 2.91,4.29 2.39,8.53 -3.47,30.81 -6.63,106.51 42.25,103.05 16.98,-1.05 27.64,-18.33 35.57,-36.1 6.93,-14.9 11.44,-32.41 15.95,-48.1 1.6,-5.85 -11.14,-8.75 -13.53,-1.34l0 0zm48.32 86.62c43.33,2.9 71.75,-47.02 82.63,-85.28 1.6,-5.85 -11.44,-8.75 -13.56,-1.34 -6.37,22.06 -29.47,59.53 -56.55,59.53 -14.35,0 -21.8,-15.42 -23.92,-34.53 26.82,-1.6 57.63,-26.86 58.97,-52.08 0.79,-16.73 -10.61,-36.92 -38.78,-36.92 -40.64,0 -59.79,40.38 -60.05,79.94 -0.26,35.88 12.48,68.29 51.26,70.68l0 0zm-11.66 -79.43c1.04,-19.15 6.89,-38.26 15.65,-47.57 4.24,-4.25 8.23,-6.11 11.69,-6.37 8.24,0 12.48,10.91 4.51,23.91 -6.37,10.36 -18.59,23.66 -31.85,30.03l0 0zm242 -7.19c-7.97,26.56 -20.19,40.12 -41.72,57.37 -0.26,-19.11 -1.05,-36.92 -1.05,-51.52 0.27,-24.44 2.65,-49.14 2.65,-54.99 0.26,-11.69 -35.06,-11.69 -35.62,-2.9 0,0.52 -0.26,1.04 -0.26,1.3 -5.29,-8.49 -17.51,-12.74 -29.46,-11.66 -41.99,3.95 -60.58,48.06 -59.8,90.04 0.82,31.07 16.21,58.98 48.36,58.98 20.97,0.26 35.05,-20.2 40.12,-39.87 0,11.18 -0.26,23.4 -0.82,36.4 -22.84,15.68 -52.04,27.08 -67.99,47.57 -25.22,32.68 -11.7,77.31 32.67,75.97 63.22,-1.61 70.94,-81.55 71.2,-132.29 31.63,-23.66 45.71,-39.31 55.24,-73.06 1.61,-5.85 -11.13,-8.75 -13.52,-1.34l0 0zm-111.31 64.82c-23.4,-1.04 -11.18,-108.37 14.34,-109.97 11.96,-0.78 15.13,11.7 15.42,24.7 0.52,19.93 -6.67,86.09 -29.76,85.27zm-6.63 121.15c-17.55,0.78 -30.55,-19.15 -14.64,-43.32 11.69,-17.51 35.09,-28.43 54.46,-42.77 -1.86,24.18 -7.97,84.49 -39.82,86.09l0 0zm236.41 -185.97c-1.6,5.33 -11.18,36.4 -21.27,52.08 -6.64,9.84 -14.87,13.56 -19.12,-0.52 -5.32,-19.15 -3.46,-48.62 0,-78.12 2.39,-18.59 -3.16,-28.95 -18.85,-28.69 -16.72,0.79 -18.59,6.37 -37.73,5.07 1.34,-9.31 1.6,-17.29 -0.53,-25.52 -4.5,-16.2 -26.82,-10.1 -30.02,11.14 -2.13,14.9 7.97,24.74 15.16,27.64 1.04,0.52 -5.85,35.06 -7.45,40.65 -2.39,9.57 11.44,9.31 13,3.72 1.34,-4.77 4.8,-20.71 7.71,-40.12 12.48,1.08 24.18,-3.73 23.4,1.6 -4.81,30.55 -19.41,117.16 34.53,116.08 18.07,-0.26 30.55,-19.11 38.78,-37.44 6.63,-14.9 11.4,-30.54 15.95,-46.23 1.56,-6.11 -11.44,-9.05 -13.56,-1.34l0 0zm158.33 0c-6.11,20.45 -21.53,61.92 -30.81,60.84 -18.63,-2.65 -9.05,-97.76 -8.79,-109.98 0.26,-11.69 -35.06,-11.69 -35.84,-2.9 0,0.52 0,1.04 -0.3,1.3 -5.03,-8.49 -17.25,-12.74 -29.47,-11.66 -41.69,3.95 -57.37,47.8 -56.59,89.78 0.82,31.07 13.04,59.24 45.45,59.24 21.5,0.26 36.1,-22.06 40.61,-42.25 1.08,18.85 12.78,40.12 36.14,39.86 29.24,-0.26 44.89,-54.46 53.12,-82.89 1.6,-5.85 -11.4,-8.75 -13.52,-1.34l0 0zm-111.06 64.82c-23.35,-1.04 -10.87,-108.11 14.35,-111.01 11.17,-1.35 16.46,8.23 18.85,12.21 -3.43,35.06 -8.5,99.88 -33.2,98.8zm333.39 -64.82c-2.12,7.45 -18.07,60.05 -31.63,60.84 -16.17,1.08 -12.74,-78.91 -12.74,-90.31 0,-18.33 -0.78,-33.49 -25.22,-32.93 -10.62,0.26 -20.19,9.8 -23.66,15.65 -8.49,13.82 -15.64,34.79 -20.45,59.23 -1.3,6.67 -1.3,6.11 -2.12,11.7 -3.17,-13 -3.99,-38 -3.99,-61.36 0.26,-18.59 -22.83,-32.41 -38.26,-20.71 -12.74,11.7 -24.96,42.51 -30.81,74.92l0.53 -62.44c0.29,-15.17 -36.1,-18.07 -36.1,-3.21 0,36.4 0,66.69 0,103.09 0,19.4 9.83,29.76 26.82,30.28 13.56,0.52 9.01,-9.31 12.74,-24.44 1.6,-6.89 16.47,-79.42 26.04,-82.62 2.39,-1.05 4.51,0.55 4.77,9.57 0.26,23.1 0.56,62.44 10.92,79.95 3.98,7.19 11.66,11.43 21.49,11.43 3.47,0 8.23,-2.12 9.57,-6.37 7.98,-35.87 20.2,-99.61 29.21,-98.31 2.68,0.56 3.21,4.29 2.68,8.53 -3.72,31.07 -5.06,105.17 41.95,101.74 17.03,-1.34 27.64,-18.59 35.88,-36.39 6.63,-14.91 11.4,-30.55 15.68,-46.24 1.83,-6.11 -11.18,-9.01 -13.3,-1.6l0 0z"/>
 </g>
</svg>
