<?xml version="1.0" encoding="UTF-8"?>
<!DOCTYPE svg PUBLIC "-//W3C//DTD SVG 1.1//EN" "http://www.w3.org/Graphics/SVG/1.1/DTD/svg11.dtd">
<!-- Creator: CorelDRAW -->
<svg xmlns="http://www.w3.org/2000/svg" xml:space="preserve" width="55.1078mm" height="13.0159mm" version="1.1" style="shape-rendering:geometricPrecision; text-rendering:geometricPrecision; image-rendering:optimizeQuality; fill-rule:evenodd; clip-rule:evenodd"
viewBox="0 0 3570.39 843.29"
 xmlns:xlink="http://www.w3.org/1999/xlink"
 xmlns:xodm="http://www.corel.com/coreldraw/odm/2003">
 <defs>
  <style type="text/css">
   <![CDATA[
    .fil1 {fill:#FEFEFE;fill-rule:nonzero}
    .fil0 {fill:url(#id0)}
   ]]>
  </style>
  <linearGradient id="id0" gradientUnits="userSpaceOnUse" x1="345.15" y1="0" x2="345.15" y2="690.31">
   <stop offset="0" style="stop-opacity:1; stop-color:#E3F5EE"/>
   <stop offset="0.458824" style="stop-opacity:1; stop-color:#29B4B9"/>
   <stop offset="1" style="stop-opacity:1; stop-color:#006D73"/>
  </linearGradient>
 </defs>
 <g id="Layer_x0020_1">
  <metadata id="CorelCorpID_0Corel-Layer"/>
  <g id="_3030192112">
   <path class="fil0" d="M641.09 345.53c0,163.2 -132.36,295.56 -295.56,295.56 -163.28,0 -295.63,-132.36 -295.63,-295.56 0,-163.27 132.36,-295.63 295.63,-295.63 163.2,0 295.56,132.36 295.56,295.63zm-370.82 170.55l149.92 0c53.05,0 96.41,-43.36 96.41,-96.41l0 -149.17c0,-53.05 -43.36,-96.42 -96.41,-96.42l-149.92 0c-52.97,0 -96.41,43.37 -96.41,96.42l0 149.17c0,53.05 43.44,96.41 96.41,96.41zm74.96 -83.13c48.55,0 87.87,-39.32 87.87,-87.87 0,-48.55 -39.32,-87.87 -87.87,-87.87 -48.55,0 -87.87,39.32 -87.87,87.87 0,48.55 39.32,87.87 87.87,87.87zm91.92 -158.77c11.18,0 20.19,-9.08 20.19,-20.19 0,-11.18 -9.01,-20.18 -20.19,-20.18 -11.1,0 -20.18,9 -20.18,20.18 0,11.1 9.08,20.19 20.18,20.19zm-91.92 20.18c28.06,0 50.79,22.66 50.79,50.72 0,28.06 -22.73,50.79 -50.79,50.79 -27.99,0 -50.72,-22.73 -50.72,-50.79 0,-28.06 22.73,-50.72 50.72,-50.72zm-74.96 -83.22l149.92 0c32.63,0 59.35,26.71 59.35,59.35l0 149.17c0,32.64 -26.71,59.35 -59.35,59.35l-149.92 0c-32.56,0 -59.28,-26.71 -59.28,-59.35l0 -149.17c0,-32.63 26.71,-59.35 59.28,-59.35zm420.72 134.39c0,190.82 -154.65,345.46 -345.46,345.46 -190.89,0 -345.53,-154.65 -345.53,-345.46 0,-190.88 154.65,-345.53 345.53,-345.53 190.81,0 345.46,154.65 345.46,345.53z"/>
   <path class="fil1" d="M1235.66 426.94c-21.46,72.78 -81.34,131.61 -148.8,134.84 -105.35,4.8 -148.72,-102.72 -148.19,-193.14 0.52,-111.8 56.2,-230.58 155.17,-235.45 68.5,-0.53 51.92,98.52 15.53,122 11.79,17.1 28.36,24.08 45.48,23.56 31.58,-1.57 58.82,-22.44 63.1,-66.33 5.4,-54.02 -36.91,-117.2 -121.93,-116.68 -157.87,1.13 -246.71,141.82 -242.96,287.38 3.23,126.21 64.23,227.35 200.64,229.53 115.63,1.57 180.31,-80.29 209.19,-183 3.23,-11.79 -22.43,-17.64 -27.24,-2.7l0.01 0zm152.46 0c-12.3,41.19 -43.36,127.33 -62.05,124.71 -30.02,-3.75 -26.27,-134.84 -22.51,-196.89 42.85,-60.48 92.07,-183.54 34.82,-260.07 -5.33,-6.98 -23.04,-3.23 -30.54,2.7 -18.68,-3.22 -42.24,1.57 -48.09,20.86 -9.15,28.89 -17.71,91.47 -23.56,161.02 -6.98,86.67 -9.67,220.45 6.98,269.15 9.6,27.84 30.46,50.79 65.2,50.28 58.9,-0.52 90.49,-111.8 106.55,-169.05 3.68,-12.3 -22.51,-18.23 -26.79,-2.7l0 0zm-63.7 -278.75c13.96,49.22 4.88,110.23 -18.69,159.97 3.23,-55.6 10.66,-111.28 18.69,-159.97zm334.95 278.75c-9.61,33.69 -27.32,69.56 -69.03,67.98 0,0 -0.52,-0.52 -0.52,-0.52 0,-0.52 0,-1.12 0.52,-1.65 8.03,-35.26 8.03,-72.71 3.23,-101.06 -3.75,-18.76 -10.73,-40.67 -26.71,-51.93 -3.23,-2.7 -6.98,-4.28 -10.2,-4.8 -3.23,-21.39 -29.41,-33.17 -51.92,-33.69 -85.54,-2.18 -124.11,89.29 -122.46,162.6 1.57,70.69 38.49,137.54 108.05,137.54 45.99,0.52 75.93,-41.72 91.46,-80.29 2.18,0 4.81,0.52 7.51,0.52 58.82,2.7 83.44,-43.3 97.39,-91.99 3.23,-11.78 -22.51,-17.63 -27.32,-2.7l0.01 0.01zm-154.04 132.73c-56.2,1.05 -50.35,-207.09 5.33,-219.4 5.85,-1.05 11.78,0 15.53,2.7 -7.5,6.91 -12.83,17.64 -15.53,29.94 -11.25,44.42 4.28,113.45 45.47,138.59 -11.25,28.89 -32.12,47.65 -50.79,48.17l0 0zm58.82 -75.49c-23.04,-19.81 -32.64,-120.88 -15.01,-123.05 8.55,-1.05 16.05,28.89 17.1,35.34 4.88,24.08 4.88,56.72 -2.1,87.71zm412.54 -57.25c-4.28,14.48 -36.39,124.18 -63.18,125.76 -32.64,1.57 -25.66,-162.67 -26.19,-185.63 0,-36.92 -1.65,-67.45 -50.28,-66.4 -21.46,0.6 -40.67,19.81 -48.17,31.59 -27.83,44.94 -44.94,90.94 -59.42,143.92l0 -141.21c0,-30.54 -74.36,-36.39 -74.36,-5.93 0,72.78 0,133.78 0,207.09 0,39.62 27.83,61.01 54.55,61.52 19.81,0.53 23.03,-1.05 27.31,-19.81 17.11,-73.83 55.68,-205.97 73.31,-203.34 5.33,1.12 5.86,8.63 4.8,17.18 -6.98,62.05 -13.35,214.52 85.09,207.54 34.22,-2.1 55.67,-36.91 71.66,-72.71 13.96,-30.01 23.03,-65.28 32.12,-96.87 3.22,-11.78 -22.44,-17.64 -27.24,-2.7l-0.01 0zm97.31 174.45c87.27,5.86 144.52,-94.69 166.43,-171.75 3.22,-11.78 -23.04,-17.64 -27.32,-2.7 -12.83,44.42 -59.35,119.91 -113.9,119.91 -28.89,0 -43.89,-31.07 -48.17,-69.56 54.02,-3.23 116.08,-54.1 118.78,-104.9 1.57,-33.69 -21.39,-74.36 -78.11,-74.36 -81.86,0 -120.43,81.34 -120.96,161.02 -0.53,72.26 25.13,137.54 103.24,142.34l0 0zm-23.49 -159.97c2.11,-38.57 13.88,-77.06 31.52,-95.82 8.55,-8.55 16.58,-12.3 23.56,-12.83 16.58,0 25.14,21.99 9.08,48.17 -12.83,20.86 -37.44,47.65 -64.15,60.48l0 0zm487.42 -14.48c-16.05,53.5 -40.67,80.81 -84.04,115.55 -0.52,-38.49 -2.1,-74.36 -2.1,-103.77 0.52,-49.22 5.33,-98.97 5.33,-110.75 0.52,-23.56 -70.61,-23.56 -71.73,-5.85 0,1.05 -0.52,2.1 -0.52,2.62 -10.66,-17.1 -35.26,-25.66 -59.35,-23.49 -84.56,7.96 -122,96.8 -120.43,181.36 1.65,62.58 32.63,118.78 97.39,118.78 42.24,0.52 70.61,-40.67 80.81,-80.29 0,22.51 -0.52,47.12 -1.65,73.31 -45.99,31.59 -104.82,54.55 -136.93,95.82 -50.8,65.81 -23.56,155.7 65.81,152.99 127.33,-3.22 142.86,-164.25 143.39,-266.45 63.71,-47.65 92.07,-79.16 111.28,-147.14 3.23,-11.79 -22.44,-17.64 -27.24,-2.7l0 0zm-224.2 130.56c-47.12,-2.1 -22.51,-218.28 28.88,-221.5 24.09,-1.57 30.47,23.56 31.07,49.75 1.05,40.14 -13.43,173.4 -59.95,171.75zm-13.36 244.01c-35.34,1.57 -61.52,-38.56 -29.49,-87.26 23.56,-35.26 70.69,-57.25 109.7,-86.14 -3.75,48.7 -16.06,170.18 -80.21,173.4l-0.01 0zm476.16 -374.57c-3.22,10.73 -22.51,73.31 -42.85,104.9 -13.35,19.81 -29.94,27.31 -38.49,-1.06 -10.73,-38.56 -6.98,-97.92 0,-157.34 4.8,-37.44 -6.38,-58.3 -37.97,-57.78 -33.69,1.57 -37.44,12.83 -76.01,10.2 2.7,-18.76 3.23,-34.82 -1.05,-51.4 -9.08,-32.64 -54.03,-20.34 -60.48,22.44 -4.28,30.01 16.06,49.82 30.54,55.67 2.1,1.05 -11.78,70.61 -15.01,81.86 -4.8,19.28 23.03,18.76 26.19,7.5 2.7,-9.6 9.67,-41.72 15.53,-80.81 25.14,2.18 48.7,-7.5 47.12,3.23 -9.68,61.52 -39.09,235.98 69.56,233.8 36.39,-0.52 61.52,-38.49 78.11,-75.41 13.35,-30.02 22.96,-61.53 32.12,-93.12 3.15,-12.31 -23.04,-18.24 -27.32,-2.7l0 0zm318.9 0c-12.3,41.19 -43.37,124.71 -62.06,122.53 -37.52,-5.33 -18.23,-196.89 -17.71,-221.5 0.52,-23.56 -70.61,-23.56 -72.18,-5.85 0,1.05 0,2.1 -0.6,2.62 -10.13,-17.1 -34.74,-25.66 -59.35,-23.49 -83.96,7.96 -115.55,96.27 -113.98,180.83 1.65,62.57 26.27,119.3 91.55,119.3 43.29,0.52 72.71,-44.42 81.78,-85.09 2.18,37.97 25.73,80.81 72.78,80.29 58.9,-0.52 90.41,-109.7 107,-166.95 3.22,-11.79 -22.96,-17.64 -27.24,-2.7l0 0zm-223.68 130.56c-47.04,-2.1 -21.91,-217.75 28.89,-223.6 22.51,-2.7 33.17,16.59 37.97,24.61 -6.9,70.6 -17.1,201.16 -66.86,198.99zm671.48 -130.56c-4.28,15.01 -36.39,120.96 -63.71,122.53 -32.56,2.18 -25.66,-158.92 -25.66,-181.88 0,-36.92 -1.57,-67.46 -50.79,-66.33 -21.39,0.52 -40.67,19.73 -47.65,31.51 -17.1,27.84 -31.51,70.08 -41.19,119.31 -2.62,13.43 -2.62,12.3 -4.28,23.56 -6.38,-26.19 -8.03,-76.54 -8.03,-123.58 0.52,-37.44 -45.99,-65.28 -77.06,-41.72 -25.66,23.56 -50.28,85.61 -62.06,150.89l1.06 -125.76c0.6,-30.54 -72.71,-36.39 -72.71,-6.45 0,73.31 0,134.31 0,207.62 0,39.09 19.81,59.96 54.03,61.01 27.32,1.05 18.15,-18.76 25.66,-49.22 3.23,-13.88 33.17,-159.97 52.45,-166.42 4.8,-2.1 9.08,1.12 9.6,19.28 0.52,46.52 1.13,125.76 21.99,161.02 8.03,14.48 23.49,23.04 43.29,23.04 6.98,0 16.59,-4.28 19.28,-12.83 16.06,-72.26 40.67,-200.65 58.83,-198.02 5.4,1.12 6.45,8.63 5.4,17.18 -7.5,62.58 -10.2,211.82 84.49,204.92 34.29,-2.7 55.68,-37.44 72.26,-73.31 13.35,-30.01 22.96,-61.52 31.59,-93.12 3.67,-12.3 -22.51,-18.16 -26.79,-3.23l0 0z"/>
  </g>
 </g>
</svg>
