<?xml version="1.0" encoding="UTF-8"?>
<!DOCTYPE svg PUBLIC "-//W3C//DTD SVG 1.1//EN" "http://www.w3.org/Graphics/SVG/1.1/DTD/svg11.dtd">
<!-- Creator: CorelDRAW -->
<svg xmlns="http://www.w3.org/2000/svg" xml:space="preserve" width="4.079mm" height="4.2996mm" version="1.1" style="shape-rendering:geometricPrecision; text-rendering:geometricPrecision; image-rendering:optimizeQuality; fill-rule:evenodd; clip-rule:evenodd"
viewBox="0 0 407.9 429.96"
 xmlns:xlink="http://www.w3.org/1999/xlink"
 xmlns:xodm="http://www.corel.com/coreldraw/odm/2003">
 <defs>
  <style type="text/css">
   <![CDATA[
    .fil0 {fill:#29B4B9}
   ]]>
  </style>
 </defs>
 <g id="Layer_x0020_1">
  <metadata id="CorelCorpID_0Corel-Layer"/>
  <path class="fil0" d="M52.19 121.31c9.11,-0.61 16.99,6.29 17.6,15.4l10.14 152.12c1.98,29.72 3.39,50.39 6.49,65.95 3,15.09 7.2,23.08 13.23,28.72 6.03,5.64 14.28,9.3 29.54,11.29 15.72,2.06 36.45,2.09 66.23,2.09l17.06 0c29.78,0 50.51,-0.03 66.24,-2.09 15.25,-1.99 23.5,-5.65 29.53,-11.29 6.03,-5.64 10.23,-13.63 13.23,-28.72 3.1,-15.56 4.51,-36.23 6.5,-65.95l10.14 -152.12c0.6,-9.11 8.48,-16.01 17.6,-15.4 9.11,0.61 16,8.49 15.4,17.6l-10.22 153.28c-1.89,28.28 -3.41,51.13 -6.98,69.05 -3.71,18.64 -10.03,34.21 -23.07,46.41 -13.05,12.2 -29,17.47 -47.85,19.94 -18.12,2.37 -41.02,2.36 -69.36,2.36l-19.38 0c-28.34,0 -51.24,0.01 -69.36,-2.36 -18.85,-2.47 -34.8,-7.74 -47.85,-19.94 -13.04,-12.2 -19.35,-27.77 -23.07,-46.41 -3.57,-17.92 -5.09,-40.77 -6.98,-69.05l-10.21 -153.28c-0.61,-9.11 6.28,-16.99 15.4,-17.6z"/>
  <path class="fil0" d="M167.69 0.01l-1.02 0c-4.77,-0.01 -8.92,-0.01 -12.85,0.62 -15.51,2.47 -28.93,12.15 -36.18,26.07 -1.83,3.53 -3.15,7.47 -4.65,12l-0.32 0.96 -2.14 6.42c-0.42,1.26 -0.54,1.61 -0.64,1.89 -3.86,10.67 -13.87,17.89 -25.22,18.17 -0.3,0.01 -0.66,0.01 -1.99,0.01l-66.14 0c-9.14,0 -16.54,7.41 -16.54,16.54 0,9.13 7.4,16.54 16.54,16.54l66.33 0 0.37 0 241.42 0 0.37 0 66.33 0c9.14,0 16.54,-7.41 16.54,-16.54 0,-9.13 -7.4,-16.54 -16.54,-16.54l-66.14 0c-1.33,0 -1.69,0 -1.99,-0.01 -11.35,-0.28 -21.36,-7.5 -25.22,-18.17 -0.1,-0.28 -0.22,-0.64 -0.64,-1.89l-2.14 -6.42 -0.32 -0.96c-1.5,-4.53 -2.81,-8.47 -4.65,-12 -7.25,-13.92 -20.67,-23.6 -36.18,-26.07 -3.92,-0.63 -8.08,-0.63 -12.85,-0.62l-1.02 0 -72.52 0zm-26.7 59.21c-0.87,2.39 -1.87,4.71 -3.01,6.93l131.94 0c-1.14,-2.22 -2.14,-4.54 -3.01,-6.93l-0.85 -2.5 -2.2 -6.6c-2.01,-6.03 -2.47,-7.26 -2.93,-8.14 -2.42,-4.64 -6.89,-7.87 -12.06,-8.69 -0.99,-0.16 -2.3,-0.21 -8.66,-0.21l-72.52 0c-6.36,0 -7.67,0.05 -8.66,0.21 -5.16,0.82 -9.64,4.05 -12.05,8.69 -0.46,0.88 -0.93,2.11 -2.94,8.14l-2.2 6.6c-0.33,1 -0.59,1.77 -0.85,2.5z"/>
 </g>
</svg>
