<?xml version="1.0" encoding="UTF-8"?>
<!DOCTYPE svg PUBLIC "-//W3C//DTD SVG 1.1//EN" "http://www.w3.org/Graphics/SVG/1.1/DTD/svg11.dtd">
<!-- Creator: CorelDRAW -->
<svg xmlns="http://www.w3.org/2000/svg" xml:space="preserve" width="23.7708mm" height="18.0128mm" version="1.1" style="shape-rendering:geometricPrecision; text-rendering:geometricPrecision; image-rendering:optimizeQuality; fill-rule:evenodd; clip-rule:evenodd"
viewBox="0 0 2377.1 1801.3"
 xmlns:xlink="http://www.w3.org/1999/xlink"
 xmlns:xodm="http://www.corel.com/coreldraw/odm/2003">
 <defs>
  <style type="text/css">
   <![CDATA[
    .fil0 {fill:#5B8A85;fill-rule:nonzero}
   ]]>
  </style>
 </defs>
 <g id="Layer_x0020_1">
  <metadata id="CorelCorpID_0Corel-Layer"/>
  <path class="fil0" d="M343.89 518.26l7.8 0c72.87,-5.21 127.53,-67.66 124.92,-140.53 -5.2,-72.87 -67.66,-127.52 -140.53,-124.92 -72.87,2.6 -127.52,67.66 -124.92,140.53 2.6,70.27 62.46,124.92 132.73,124.92zm-62.47 -187.38c13.01,-15.61 33.83,-26.02 54.65,-26.02l5.21 0c44.24,0 80.67,36.43 80.67,80.68 0,44.24 -36.43,80.67 -80.67,80.67 -44.25,0 -80.68,-36.43 -80.68,-80.67 0,-20.82 7.81,-39.04 20.82,-54.66z"/>
  <path class="fil0" d="M2124 372.53l-694.86 -39.03 -5.21 -78.08c-7.8,-148.34 -135.32,-262.85 -286.27,-255.04l-882.24 49.45c-148.34,7.8 -262.85,137.93 -255.04,286.27l49.44 884.84 0 20.82c18.22,135.33 132.73,236.83 268.06,236.83l15.61 0 564.74 -31.23 0 15.61c-7.81,148.34 104.09,278.47 255.04,286.27l884.84 52.05 15.62 0c143.13,0 262.85,-111.9 270.65,-255.04l52.05 -884.85c10.41,-150.94 -104.1,-278.46 -252.43,-288.87l-0.01 0zm-2016.93 -197.78c39.04,-44.25 93.69,-70.27 150.94,-72.87l884.85 -49.45c119.71,-7.81 223.81,85.88 231.61,205.59l5.2 72.87 -137.93 -7.81c-148.34,-7.8 -278.46,104.1 -286.27,255.05l-15.61 247.23 -247.24 278.46c-5.2,7.81 -15.61,10.41 -26.02,13.01 -10.41,0 -18.22,-2.6 -26.03,-10.4l-202.99 -182.17c-36.43,-33.83 -91.09,-28.62 -124.92,7.81l-210.8 236.82 -46.84 -832.79c-5.21,-59.86 15.61,-117.11 52.05,-161.35l0.01 -0.01zm226.41 1249.19c-111.9,5.2 -210.8,-72.87 -229.01,-184.78l244.63 -273.26c5.2,-7.81 15.61,-10.41 26.02,-13.01 10.41,0 18.22,2.6 26.03,10.41l202.99 182.16c18.22,15.62 41.64,23.42 65.06,23.42 23.42,0 44.24,-13.01 59.86,-28.62l202.99 -229.02 -28.63 484.06 -569.94 28.63 0 0.01zm1990.89 -767.74l-52.05 884.85c-7.8,119.71 -111.9,213.4 -231.61,205.59l-884.84 -52.05c-119.71,-7.81 -213.4,-111.9 -205.6,-231.61l52.05 -884.84c7.81,-114.51 101.5,-205.6 218.61,-205.6l13.01 0 884.85 52.05c122.32,7.81 213.4,111.91 205.59,231.61l-0.01 0z"/>
  <path class="fil0" d="M1954.84 976.31l-439.82 -288.87c-54.65,-36.43 -127.52,-20.82 -161.35,33.83 -10.41,18.22 -18.22,36.43 -18.22,57.25l-31.23 523.1c-2.6,65.06 44.24,119.71 109.3,124.92l7.81 0c18.22,0 36.44,-5.21 52.05,-13.02l468.44 -234.21c57.26,-28.63 80.68,-98.9 52.05,-156.15 -10.41,-18.22 -23.42,-33.84 -39.03,-46.85zm-36.44 156.15l-468.44 234.22c-10.41,5.21 -20.82,7.81 -33.83,7.81 -10.41,0 -23.42,-5.21 -31.23,-10.41 -18.22,-13.01 -31.23,-33.83 -28.63,-57.26l31.23 -523.09c2.6,-23.42 15.61,-44.24 36.43,-54.65 20.82,-10.41 44.25,-7.81 65.07,2.6l434.61 288.88c31.23,20.82 39.03,59.85 18.21,88.48 -5.2,10.41 -13.01,18.22 -23.42,23.42z"/>
 </g>
</svg>
