<?xml version="1.0" encoding="UTF-8"?>
<!DOCTYPE svg PUBLIC "-//W3C//DTD SVG 1.1//EN" "http://www.w3.org/Graphics/SVG/1.1/DTD/svg11.dtd">
<!-- Creator: CorelDRAW -->
<svg xmlns="http://www.w3.org/2000/svg" xml:space="preserve" width="4.7404mm" height="2.5356mm" version="1.1" style="shape-rendering:geometricPrecision; text-rendering:geometricPrecision; image-rendering:optimizeQuality; fill-rule:evenodd; clip-rule:evenodd"
viewBox="0 0 474.04 253.56"
 xmlns:xlink="http://www.w3.org/1999/xlink"
 xmlns:xodm="http://www.corel.com/coreldraw/odm/2003">
 <defs>
  <style type="text/css">
   <![CDATA[
    .fil0 {fill:#29B4B9}
   ]]>
  </style>
 </defs>
 <g id="Layer_x0020_1">
  <metadata id="CorelCorpID_0Corel-Layer"/>
  <path class="fil0" d="M474.04 16.54c0,9.13 -7.4,16.54 -16.53,16.54l-440.97 0c-9.14,0 -16.54,-7.41 -16.54,-16.54 0,-9.13 7.4,-16.54 16.54,-16.54l440.97 0c9.13,0 16.53,7.41 16.53,16.54z"/>
  <path class="fil0" d="M407.9 126.78c0,9.13 -7.4,16.54 -16.54,16.54l-308.68 0c-9.13,0 -16.54,-7.41 -16.54,-16.54 0,-9.13 7.41,-16.54 16.54,-16.54l308.68 0c9.14,0 16.54,7.41 16.54,16.54z"/>
  <path class="fil0" d="M341.75 237.02c0,9.13 -7.4,16.54 -16.53,16.54l-176.39 0c-9.14,0 -16.54,-7.41 -16.54,-16.54 0,-9.13 7.4,-16.54 16.54,-16.54l176.39 0c9.13,0 16.53,7.41 16.53,16.54z"/>
 </g>
</svg>
