<?xml version="1.0" encoding="UTF-8"?>
<!DOCTYPE svg PUBLIC "-//W3C//DTD SVG 1.1//EN" "http://www.w3.org/Graphics/SVG/1.1/DTD/svg11.dtd">
<!-- Creator: CorelDRAW -->
<svg xmlns="http://www.w3.org/2000/svg" xml:space="preserve" width="3.8588mm" height="4.7405mm" version="1.1" style="shape-rendering:geometricPrecision; text-rendering:geometricPrecision; image-rendering:optimizeQuality; fill-rule:evenodd; clip-rule:evenodd"
viewBox="0 0 385.88 474.05"
 xmlns:xlink="http://www.w3.org/1999/xlink"
 xmlns:xodm="http://www.corel.com/coreldraw/odm/2003">
 <defs>
  <style type="text/css">
   <![CDATA[
    .fil0 {fill:#29B4B9}
   ]]>
  </style>
 </defs>
 <g id="Layer_x0020_1">
  <metadata id="CorelCorpID_0Corel-Layer"/>
  <path class="fil0" d="M192.94 0c-57.84,0 -104.73,46.89 -104.73,104.73 0,57.85 46.89,104.73 104.73,104.73 57.84,0 104.73,-46.88 104.73,-104.73 0,-57.84 -46.89,-104.73 -104.73,-104.73zm-71.66 104.73c0,-39.57 32.09,-71.65 71.66,-71.65 39.58,0 71.66,32.08 71.66,71.65 0,39.58 -32.08,71.66 -71.66,71.66 -39.57,0 -71.66,-32.08 -71.66,-71.66z"/>
  <path class="fil0" d="M192.94 242.54c-51.01,0 -98.01,11.59 -132.83,31.18 -34.31,19.3 -60.09,48.55 -60.09,84.57l-0.01 2.25c-0.02,25.62 -0.05,57.77 28.15,80.74 13.88,11.3 33.29,19.33 59.53,24.64 26.3,5.33 60.59,8.13 105.25,8.13 44.67,0 78.95,-2.8 105.26,-8.13 26.23,-5.31 45.65,-13.34 59.52,-24.64 28.2,-22.97 28.17,-55.12 28.15,-80.74l0 -2.25c0,-36.02 -25.79,-65.27 -60.1,-84.57 -34.82,-19.59 -81.82,-31.18 -132.83,-31.18zm-159.85 115.75c0,-18.77 13.7,-39.13 43.23,-55.74 29.02,-16.32 70.21,-26.94 116.62,-26.94 46.41,0 87.6,10.62 116.62,26.94 29.53,16.61 43.23,36.97 43.23,55.74 0,28.84 -0.89,45.07 -15.95,57.34 -8.17,6.65 -21.83,13.15 -45.21,17.88 -23.3,4.71 -55.16,7.47 -98.69,7.47 -43.53,0 -75.39,-2.76 -98.69,-7.47 -23.38,-4.73 -37.04,-11.23 -45.21,-17.88 -15.06,-12.27 -15.95,-28.5 -15.95,-57.34z"/>
 </g>
</svg>
