<?xml version="1.0" encoding="UTF-8"?>
<!DOCTYPE svg PUBLIC "-//W3C//DTD SVG 1.1//EN" "http://www.w3.org/Graphics/SVG/1.1/DTD/svg11.dtd">
<!-- Creator: CorelDRAW -->
<svg xmlns="http://www.w3.org/2000/svg" xml:space="preserve" width="5.6886mm" height="5.6886mm" version="1.1" style="shape-rendering:geometricPrecision; text-rendering:geometricPrecision; image-rendering:optimizeQuality; fill-rule:evenodd; clip-rule:evenodd"
viewBox="0 0 568.86 568.86"
 xmlns:xlink="http://www.w3.org/1999/xlink"
 xmlns:xodm="http://www.corel.com/coreldraw/odm/2003">
 <defs>
  <style type="text/css">
   <![CDATA[
    .fil0 {fill:#29B4B9}
   ]]>
  </style>
 </defs>
 <g id="Layer_x0020_1">
  <metadata id="CorelCorpID_0Corel-Layer"/>
  <path class="fil0" d="M456.41 0c10.96,0 19.84,8.89 19.84,19.85l0 72.76 72.76 0c10.96,0 19.85,8.88 19.85,19.84 0,10.96 -8.89,19.84 -19.85,19.84l-72.76 0 0 72.76c0,10.96 -8.88,19.85 -19.84,19.85 -10.96,0 -19.84,-8.89 -19.84,-19.85l0 -72.76 -72.76 0c-10.96,0 -19.85,-8.88 -19.85,-19.84 0,-10.96 8.89,-19.84 19.85,-19.84l72.76 0 0 -72.76c0,-10.96 8.88,-19.85 19.84,-19.85z"/>
  <path class="fil0" d="M284.43 0l-1.52 0c-61.07,0 -108.94,0 -146.28,5.02 -38.23,5.14 -68.39,15.87 -92.07,39.54 -23.67,23.68 -34.4,53.84 -39.54,92.07 -5.02,37.34 -5.02,85.21 -5.02,146.28l0 3.04c0,61.08 0,108.94 5.02,146.28 5.14,38.23 15.87,68.39 39.54,92.07 23.68,23.67 53.84,34.4 92.07,39.54 37.34,5.02 85.21,5.02 146.28,5.02l3.04 0c61.08,0 108.94,0 146.28,-5.02 38.23,-5.14 68.39,-15.87 92.07,-39.54 23.67,-23.68 34.4,-53.84 39.54,-92.07 5.02,-37.34 5.02,-85.2 5.02,-146.28l0 -1.52c0,-10.96 -8.89,-19.84 -19.85,-19.84 -10.96,0 -19.84,8.88 -19.84,19.84 0,62.92 -0.04,108.12 -4.67,142.52 -0.18,1.35 -0.37,2.69 -0.56,4l-73.4 -66.05c-34.38,-30.95 -85.58,-34.03 -123.42,-7.43l-7.89 5.54c-13.15,9.24 -31.04,7.7 -42.4,-3.67l-113.5 -113.5c-30.05,-30.04 -78.23,-31.64 -110.21,-3.67l-13.4 11.73c0.12,-47.42 0.8,-83.43 4.64,-111.99 4.54,-33.82 13.19,-54.21 28.27,-69.28 15.07,-15.08 35.46,-23.73 69.28,-28.27 34.4,-4.63 79.6,-4.67 142.52,-4.67 10.96,0 19.84,-8.88 19.84,-19.84 0,-10.96 -8.88,-19.85 -19.84,-19.85zm-240.07 426.95c4.54,33.82 13.19,54.21 28.27,69.28 15.07,15.08 35.46,23.73 69.28,28.27 34.4,4.63 79.6,4.67 142.52,4.67 62.92,0 108.12,-0.04 142.52,-4.67 33.82,-4.54 54.21,-13.19 69.28,-28.27 6.45,-6.44 11.72,-13.85 16,-22.88 -1.03,-0.63 -2.02,-1.36 -2.95,-2.19l-85.29 -76.76c-20.63,-18.57 -51.35,-20.42 -74.05,-4.46l-7.89 5.54c-28.93,20.33 -68.29,16.93 -93.29,-8.08l-113.5 -113.5c-15.26,-15.26 -39.75,-16.08 -56,-1.86l-39.56 34.61c0.07,51.56 0.6,90.09 4.66,120.3z"/>
 </g>
</svg>
