<?xml version="1.0" encoding="UTF-8"?>
<!DOCTYPE svg PUBLIC "-//W3C//DTD SVG 1.1//EN" "http://www.w3.org/Graphics/SVG/1.1/DTD/svg11.dtd">
<!-- Creator: CorelDRAW -->
<svg xmlns="http://www.w3.org/2000/svg" xml:space="preserve" width="5.6886mm" height="5.6886mm" version="1.1" style="shape-rendering:geometricPrecision; text-rendering:geometricPrecision; image-rendering:optimizeQuality; fill-rule:evenodd; clip-rule:evenodd"
viewBox="0 0 568.86 568.86"
 xmlns:xlink="http://www.w3.org/1999/xlink"
 xmlns:xodm="http://www.corel.com/coreldraw/odm/2003">
 <defs>
  <style type="text/css">
   <![CDATA[
    .fil1 {fill:#29B4B9}
    .fil0 {fill:#29B4B9;fill-rule:nonzero}
   ]]>
  </style>
 </defs>
 <g id="Layer_x0020_1">
  <metadata id="CorelCorpID_0Corel-Layer"/>
  <path class="fil0" d="M205.05 423.34c-10.95,0 -19.84,8.88 -19.84,19.84 0,10.96 8.89,19.84 19.84,19.84l158.76 0c10.95,0 19.84,-8.88 19.84,-19.84 0,-10.96 -8.89,-19.84 -19.84,-19.84l-158.76 0z"/>
  <path class="fil1" d="M284.43 0c-18.74,0 -35.76,5.37 -54.23,14.35 -17.85,8.68 -38.47,21.48 -64.23,37.47l-54.68 33.93c-24.37,15.13 -43.89,27.24 -58.93,38.76 -15.58,11.93 -27.54,24.08 -36.18,39.87 -8.63,15.75 -12.51,32.52 -14.37,52.34 -1.81,19.2 -1.81,42.68 -1.81,72.13l0 42.67c0,50.37 0,90.14 4.04,121.23 4.15,31.89 12.86,57.64 32.54,77.99 19.77,20.45 44.93,29.59 76.07,33.92 30.19,4.2 68.74,4.2 117.32,4.2l108.91 0c48.59,0 87.14,0 117.33,-4.2 31.14,-4.33 56.3,-13.47 76.07,-33.92 19.68,-20.35 28.39,-46.1 32.54,-77.99 4.04,-31.09 4.04,-70.85 4.04,-121.23l0 -42.67c0,-29.45 0,-52.93 -1.81,-72.13 -1.86,-19.82 -5.74,-36.59 -14.37,-52.34 -8.64,-15.79 -20.6,-27.94 -36.18,-39.87 -15.04,-11.52 -34.56,-23.63 -58.93,-38.76l-54.68 -33.93c-25.76,-15.99 -46.38,-28.79 -64.24,-37.47 -18.46,-8.98 -35.48,-14.35 -54.22,-14.35zm-98.44 86.1c26.88,-16.68 45.77,-28.38 61.57,-36.06 15.39,-7.48 26.29,-10.35 36.87,-10.35 10.58,0 21.48,2.87 36.87,10.35 15.8,7.68 34.69,19.38 61.57,36.06l52.91 32.84c25.43,15.78 43.27,26.88 56.59,37.08 12.95,9.92 20.4,18.11 25.5,27.41 5.11,9.35 8.1,20.27 9.67,37 1.61,17.13 1.63,38.75 1.63,69.39l0 40.25c0,52.15 -0.04,89.33 -3.71,117.56 -3.6,27.73 -10.39,43.82 -21.71,55.53 -11.23,11.61 -26.52,18.51 -53.01,22.19 -27.13,3.77 -62.92,3.82 -113.39,3.82l-105.84 0c-50.47,0 -86.26,-0.05 -113.39,-3.82 -26.5,-3.68 -41.78,-10.58 -53.01,-22.19 -11.32,-11.71 -18.11,-27.8 -21.71,-55.53 -3.67,-28.23 -3.71,-65.41 -3.71,-117.56l0 -40.25c0,-30.64 0.02,-52.26 1.63,-69.39 1.57,-16.73 4.56,-27.65 9.67,-37 5.1,-9.3 12.55,-17.49 25.5,-27.41 13.32,-10.2 31.16,-21.3 56.59,-37.08l52.91 -32.84z"/>
 </g>
</svg>
