<?xml version="1.0" encoding="UTF-8"?>
<!DOCTYPE svg PUBLIC "-//W3C//DTD SVG 1.1//EN" "http://www.w3.org/Graphics/SVG/1.1/DTD/svg11.dtd">
<!-- Creator: CorelDRAW -->
<svg xmlns="http://www.w3.org/2000/svg" xml:space="preserve" width="5.424mm" height="5.424mm" version="1.1" style="shape-rendering:geometricPrecision; text-rendering:geometricPrecision; image-rendering:optimizeQuality; fill-rule:evenodd; clip-rule:evenodd"
viewBox="0 0 517.17 517.17"
 xmlns:xlink="http://www.w3.org/1999/xlink"
 xmlns:xodm="http://www.corel.com/coreldraw/odm/2003">
 <defs>
  <style type="text/css">
   <![CDATA[
    .fil0 {fill:#29B4B9}
    .fil1 {fill:#29B4B9;fill-rule:nonzero}
   ]]>
  </style>
 </defs>
 <g id="Layer_x0020_1">
  <metadata id="CorelCorpID_0Corel-Layer"/>
  <path class="fil0" d="M195.51 0c-66.17,0 -119.82,53.65 -119.82,119.83 0,66.18 53.65,119.83 119.82,119.83 66.19,0 119.83,-53.65 119.83,-119.83 0,-66.18 -53.64,-119.83 -119.83,-119.83zm-81.98 119.83c0,-45.28 36.7,-81.99 81.98,-81.99 45.29,0 81.99,36.71 81.99,81.99 0,45.28 -36.7,81.99 -81.99,81.99 -45.28,0 -81.98,-36.71 -81.98,-81.99z"/>
  <path class="fil1" d="M346.89 25.23c-10.45,0 -18.93,8.48 -18.93,18.92 0,10.45 8.48,18.93 18.93,18.93 31.34,0 56.76,25.41 56.76,56.76 0,31.35 -25.42,56.76 -56.76,56.76 -10.45,0 -18.93,8.48 -18.93,18.92 0,10.45 8.48,18.93 18.93,18.93 52.24,0 94.6,-42.35 94.6,-94.6 0,-52.25 -42.35,-94.6 -94.6,-94.6z"/>
  <path class="fil0" d="M61.26 309.56c35.3,-20.18 82.81,-32.06 134.25,-32.06 51.45,0 98.96,11.88 134.26,32.06 34.77,19.86 61.26,50.19 61.26,87.78 0,37.59 -26.49,67.92 -61.26,87.79 -35.3,20.17 -82.81,32.05 -134.26,32.05 -51.44,0 -98.95,-11.88 -134.25,-32.05 -34.77,-19.87 -61.26,-50.2 -61.26,-87.79 0,-37.59 26.49,-67.92 61.26,-87.78zm18.77 32.86c-29.15,16.65 -42.19,36.78 -42.19,54.92 0,18.14 13.04,38.27 42.19,54.93 28.61,16.34 69.39,27.06 115.48,27.06 46.09,0 86.87,-10.72 115.49,-27.06 29.15,-16.66 42.19,-36.79 42.19,-54.93 0,-18.14 -13.04,-38.27 -42.19,-54.92 -28.61,-16.35 -69.39,-27.07 -115.49,-27.07 -46.08,0 -86.86,10.72 -115.48,27.07z"/>
  <path class="fil1" d="M426.62 303.17c-10.2,-2.23 -20.3,4.22 -22.53,14.43 -2.24,10.21 4.21,20.3 14.43,22.54 19.99,4.39 35.97,11.91 46.51,20.54 10.56,8.64 14.3,17.08 14.3,24.05 0,6.33 -3.04,13.75 -11.43,21.55 -8.45,7.85 -21.42,15.09 -38.17,20.14 -10.01,3.01 -15.68,13.57 -12.66,23.57 3.01,10.01 13.57,15.68 23.57,12.66 20.75,-6.25 39.3,-15.91 53.01,-28.65 13.78,-12.8 23.52,-29.62 23.52,-49.27 0,-21.82 -11.97,-40.06 -28.19,-53.33 -16.24,-13.29 -38.1,-22.9 -62.37,-28.22z"/>
 </g>
</svg>
