<?xml version="1.0" encoding="UTF-8"?>
<!DOCTYPE svg PUBLIC "-//W3C//DTD SVG 1.1//EN" "http://www.w3.org/Graphics/SVG/1.1/DTD/svg11.dtd">
<!-- Creator: CorelDRAW -->
<svg xmlns="http://www.w3.org/2000/svg" xml:space="preserve" width="4.2994mm" height="4.7405mm" version="1.1" style="shape-rendering:geometricPrecision; text-rendering:geometricPrecision; image-rendering:optimizeQuality; fill-rule:evenodd; clip-rule:evenodd"
viewBox="0 0 429.94 474.05"
 xmlns:xlink="http://www.w3.org/1999/xlink"
 xmlns:xodm="http://www.corel.com/coreldraw/odm/2003">
 <defs>
  <style type="text/css">
   <![CDATA[
    .fil1 {fill:#29B4B9}
    .fil0 {fill:#29B4B9;fill-rule:nonzero}
   ]]>
  </style>
 </defs>
 <g id="Layer_x0020_1">
  <metadata id="CorelCorpID_0Corel-Layer"/>
  <path class="fil0" d="M148.82 88.19c-9.13,0 -16.53,7.4 -16.53,16.54 0,9.13 7.4,16.53 16.53,16.53l132.3 0c9.13,0 16.53,-7.4 16.53,-16.53 0,-9.14 -7.4,-16.54 -16.53,-16.54l-132.3 0z"/>
  <path class="fil1" d="M213.7 0c-45.69,0 -81.7,0 -109.83,3.82 -28.88,3.92 -51.93,12.15 -70.03,30.46 -18.09,18.28 -26.19,41.5 -30.07,70.61 -3.77,28.4 -3.77,64.76 -3.77,110.99l0 112.4c0,33.24 0,59.56 2.11,79.37 2.1,19.58 6.58,37.24 19.4,49.06 10.29,9.47 23.29,15.45 37.17,17.04 17.36,1.98 33.58,-6.31 49.55,-17.62 16.16,-11.45 35.76,-28.78 60.49,-50.66l0.81 -0.71c11.47,-10.15 19.23,-16.99 25.71,-21.73 6.26,-4.57 10.08,-6.23 13.3,-6.88 4.25,-0.85 8.62,-0.85 12.86,0 3.22,0.65 7.04,2.31 13.3,6.88 6.48,4.74 14.25,11.58 25.71,21.73l0.81 0.71c24.73,21.88 44.34,39.21 60.49,50.66 15.97,11.31 32.18,19.6 49.55,17.62 13.88,-1.59 26.88,-7.57 37.17,-17.04 12.82,-11.82 17.3,-29.48 19.4,-49.06 2.11,-19.81 2.11,-46.13 2.11,-79.37l0 -112.4c0,-46.23 0,-82.59 -3.77,-110.99 -3.88,-29.11 -11.98,-52.33 -30.07,-70.61 -18.1,-18.31 -41.15,-26.54 -70.03,-30.46 -28.13,-3.82 -64.13,-3.82 -109.83,-3.82l-2.54 0zm-156.35 57.54c10.95,-11.07 25.82,-17.53 50.98,-20.95 25.64,-3.49 59.4,-3.52 106.64,-3.52 47.24,0 81,0.03 106.64,3.52 25.15,3.42 40.03,9.88 50.98,20.95 10.98,11.09 17.4,26.2 20.79,51.71 3.46,25.97 3.49,60.13 3.49,107.87l0 110.1c0,34.53 -0.02,59.07 -1.93,76.91 -1.95,18.29 -5.56,25.15 -8.92,28.26 -5.16,4.75 -11.64,7.71 -18.52,8.5 -4.4,0.5 -11.78,-1.2 -26.67,-11.75 -14.52,-10.28 -32.79,-26.41 -58.51,-49.16l-0.57 -0.51c-10.75,-9.5 -19.66,-17.38 -27.52,-23.13 -8.23,-6.02 -16.52,-10.64 -26.3,-12.61 -8.55,-1.72 -17.36,-1.72 -25.92,0 -9.78,1.97 -18.07,6.59 -26.3,12.61 -7.86,5.75 -16.77,13.63 -27.52,23.13l-0.57 0.51c-25.72,22.75 -43.99,38.88 -58.51,49.16 -14.89,10.55 -22.27,12.25 -26.67,11.75 -6.88,-0.79 -13.36,-3.75 -18.51,-8.5 -3.37,-3.11 -6.98,-9.97 -8.93,-28.26 -1.91,-17.84 -1.93,-42.38 -1.93,-76.91l0 -110.1c0,-47.74 0.03,-81.9 3.49,-107.87 3.39,-25.51 9.81,-40.62 20.79,-51.71z"/>
 </g>
</svg>
