<?xml version="1.0" encoding="UTF-8"?>
<!DOCTYPE svg PUBLIC "-//W3C//DTD SVG 1.1//EN" "http://www.w3.org/Graphics/SVG/1.1/DTD/svg11.dtd">
<!-- Creator: CorelDRAW -->
<svg xmlns="http://www.w3.org/2000/svg" xml:space="preserve" width="3.9688mm" height="4.4097mm" version="1.1" style="shape-rendering:geometricPrecision; text-rendering:geometricPrecision; image-rendering:optimizeQuality; fill-rule:evenodd; clip-rule:evenodd"
viewBox="0 0 396.88 440.97"
 xmlns:xlink="http://www.w3.org/1999/xlink"
 xmlns:xodm="http://www.corel.com/coreldraw/odm/2003">
 <defs>
  <style type="text/css">
   <![CDATA[
    .fil0 {fill:#29B4B9}
   ]]>
  </style>
 </defs>
 <g id="Layer_x0020_1">
  <metadata id="CorelCorpID_0Corel-Layer"/>
  <path class="fil0" d="M396.88 200.59l0 110.09c0,68.28 0,102.42 -16.19,117.33 -7.72,7.12 -17.46,11.59 -27.84,12.77 -21.77,2.49 -47.18,-19.98 -98.01,-64.94 -22.47,-19.88 -33.71,-29.81 -46.71,-32.43 -6.4,-1.29 -12.98,-1.29 -19.39,0 -12.99,2.62 -24.23,12.55 -46.7,32.43 -50.83,44.96 -76.24,67.43 -98.01,64.94 -10.38,-1.18 -20.12,-5.65 -27.84,-12.77 -16.19,-14.91 -16.19,-49.05 -16.19,-117.33l0 -110.09c0,-94.56 0,-141.84 29.06,-171.22 29.06,-29.37 75.84,-29.37 169.38,-29.37 93.54,0 140.32,0 169.38,29.37 29.06,29.38 29.06,76.66 29.06,171.22zm-281.12 -112.4c0,-9.13 7.4,-16.53 16.53,-16.53l132.3 0c9.13,0 16.53,7.4 16.53,16.53 0,9.14 -7.4,16.54 -16.53,16.54l-132.3 0c-9.13,0 -16.53,-7.4 -16.53,-16.54z"/>
 </g>
</svg>
