<?xml version="1.0" encoding="UTF-8"?>
<!DOCTYPE svg PUBLIC "-//W3C//DTD SVG 1.1//EN" "http://www.w3.org/Graphics/SVG/1.1/DTD/svg11.dtd">
<!-- Creator: CorelDRAW -->
<svg xmlns="http://www.w3.org/2000/svg" xml:space="preserve" width="5.6886mm" height="5.6886mm" version="1.1" style="shape-rendering:geometricPrecision; text-rendering:geometricPrecision; image-rendering:optimizeQuality; fill-rule:evenodd; clip-rule:evenodd"
viewBox="0 0 568.86 568.86"
 xmlns:xlink="http://www.w3.org/1999/xlink"
 xmlns:xodm="http://www.corel.com/coreldraw/odm/2003">
 <defs>
  <style type="text/css">
   <![CDATA[
    .fil0 {fill:#29B4B9}
   ]]>
  </style>
 </defs>
 <g id="Layer_x0020_1">
  <metadata id="CorelCorpID_0Corel-Layer"/>
  <path class="fil0" d="M256.52 0l55.82 0c36.19,0 65.35,0 88.29,3.09 23.81,3.2 43.86,10.05 59.79,25.97 10.59,10.59 17.17,23 21.33,37.14 5.59,0.08 10.27,0.33 14.57,1.01 36.79,5.83 65.65,34.68 71.48,71.48 1.06,6.71 1.06,14.34 1.06,24.97 0,0.56 0,1.13 0,1.71l0 238.12c0,0.58 0,1.15 0,1.71 0,10.63 0,18.26 -1.06,24.97 -5.83,36.8 -34.69,65.65 -71.48,71.48 -4.3,0.68 -8.98,0.93 -14.57,1.01 -4.16,14.14 -10.74,26.55 -21.33,37.14 -15.93,15.92 -35.98,22.77 -59.79,25.97 -22.94,3.09 -52.1,3.09 -88.29,3.09l-55.82 0c-36.18,0 -65.35,0 -88.29,-3.09 -23.81,-3.2 -43.87,-10.05 -59.79,-25.97 -10.59,-10.59 -17.17,-23 -21.33,-37.14 -5.59,-0.08 -10.27,-0.33 -14.57,-1.01 -36.79,-5.83 -65.65,-34.68 -71.48,-71.48 -1.06,-6.71 -1.06,-14.34 -1.06,-24.97 0,-0.56 0,-1.13 0,-1.71l0 -238.12c0,-0.58 0,-1.15 0,-1.72 0,-10.62 0,-18.25 1.06,-24.96 5.83,-36.8 34.69,-65.65 71.48,-71.48 4.3,-0.68 8.98,-0.93 14.57,-1.01 4.16,-14.14 10.74,-26.55 21.33,-37.14 15.92,-15.92 35.98,-22.77 59.79,-25.97 22.94,-3.09 52.11,-3.09 88.29,-3.09zm-175.77 106.16c-0.74,0.07 -1.39,0.15 -2,0.25 -19.81,3.13 -35.35,18.67 -38.49,38.49 -0.51,3.21 -0.57,7.42 -0.57,20.47l0 238.12c0,13.05 0.06,17.26 0.57,20.48 3.14,19.81 18.68,35.35 38.49,38.48 0.61,0.1 1.26,0.18 2,0.25 -1.37,-19.8 -1.37,-43.35 -1.37,-70.98l0 -32.77c0,-0.01 0,-0.02 0,-0.04l0 -181.77c0,-27.63 0,-51.18 1.37,-70.98zm38.32 260.84l0 23.26c0,37.98 0.04,64.47 2.72,84.46 2.61,19.41 7.39,29.69 14.71,37.01 7.32,7.33 17.61,12.1 37.02,14.71 19.99,2.69 46.47,2.73 84.45,2.73l52.92 0c37.98,0 64.46,-0.04 84.45,-2.73 19.42,-2.61 29.69,-7.38 37.02,-14.71 4.02,-4.02 7.27,-8.93 9.82,-15.76l-49.79 -52.55c-13.32,-14.05 -31.72,-15.01 -45.73,-3.47l-5.82 4.79c-24.24,19.98 -57.61,16.06 -77.7,-7.51l-83.64 -98.07c-9.26,-10.85 -22.46,-11.11 -31.92,-1.41l-28.51 29.25zm330.17 78.72l-28.04 -29.59c-27.22,-28.72 -69.18,-32.02 -99.78,-6.8l-5.81 4.79c-6.77,5.57 -15.58,5.21 -22.28,-2.64l-83.63 -98.07c-24.12,-28.28 -64.46,-30.12 -90.54,-3.36l-0.09 0.09 0 -131.54c0,-37.98 0.04,-64.47 2.72,-84.46 2.61,-19.41 7.39,-29.69 14.71,-37.01 7.32,-7.33 17.61,-12.1 37.02,-14.71 19.99,-2.69 46.47,-2.73 84.45,-2.73l52.92 0c37.98,0 64.46,0.04 84.45,2.73 19.42,2.61 29.69,7.38 37.02,14.71 7.32,7.32 12.1,17.6 14.71,37.01 2.68,19.99 2.72,46.48 2.72,84.46l0 211.66c0,22.03 -0.01,40.19 -0.55,55.46zm38.87 16.98c0.74,-0.07 1.39,-0.15 2,-0.25 19.81,-3.13 35.35,-18.67 38.49,-38.48 0.51,-3.22 0.57,-7.43 0.57,-20.48l0 -238.12c0,-13.05 -0.06,-17.26 -0.57,-20.47 -3.14,-19.82 -18.68,-35.36 -38.49,-38.49 -0.61,-0.1 -1.26,-0.18 -2,-0.25 1.37,19.8 1.37,43.35 1.37,70.98l0 214.58c0,27.63 0,51.18 -1.37,70.98zm-137.53 -343.63c-10.96,0 -19.85,8.88 -19.85,19.84 0,10.96 8.89,19.84 19.85,19.84 10.95,0 19.84,-8.88 19.84,-19.84 0,-10.96 -8.89,-19.84 -19.84,-19.84zm-59.54 19.84c0,-32.88 26.66,-59.53 59.54,-59.53 32.87,0 59.53,26.65 59.53,59.53 0,32.88 -26.66,59.53 -59.53,59.53 -32.88,0 -59.54,-26.65 -59.54,-59.53z"/>
 </g>
</svg>
