<?xml version="1.0" encoding="UTF-8"?>
<!DOCTYPE svg PUBLIC "-//W3C//DTD SVG 1.1//EN" "http://www.w3.org/Graphics/SVG/1.1/DTD/svg11.dtd">
<!-- Creator: CorelDRAW -->
<svg xmlns="http://www.w3.org/2000/svg" xml:space="preserve" width="4.0767mm" height="3.7206mm" version="1.1" style="shape-rendering:geometricPrecision; text-rendering:geometricPrecision; image-rendering:optimizeQuality; fill-rule:evenodd; clip-rule:evenodd"
viewBox="0 0 423.97 386.93"
 xmlns:xlink="http://www.w3.org/1999/xlink"
 xmlns:xodm="http://www.corel.com/coreldraw/odm/2003">
 <defs>
  <style type="text/css">
   <![CDATA[
    .fil0 {fill:#29B4B9}
   ]]>
  </style>
 </defs>
 <g id="Layer_x0020_1">
  <metadata id="CorelCorpID_0Corel-Layer"/>
  <path class="fil0" d="M151.69 23.13c-0.29,0.26 -0.59,0.52 -0.88,0.78l-92.04 81.81c-17.17,15.27 -31.41,27.92 -41.18,39.4 -10.27,12.07 -17.59,25.07 -17.59,41.15 0,16.09 7.31,29.09 17.59,41.16 9.78,11.48 24.01,24.14 41.18,39.4l92.04 81.8c0.29,0.27 0.59,0.53 0.88,0.79 7.44,6.61 14.38,12.79 20.38,16.74 5.89,3.9 16.6,9.55 28.6,4.15 12,-5.39 14.89,-17.14 15.9,-24.13 1.02,-7.11 1.02,-16.4 1.02,-26.36 0,-0.4 0,-0.79 0,-1.19l0 -35.96c33.28,2.3 67.01,11.13 96.51,25.51 34.69,16.9 62.4,40.87 77.44,69.51 3.68,7.01 11.66,10.6 19.34,8.7 7.69,-1.89 13.08,-8.79 13.08,-16.7 0,-108.25 -31.68,-178.74 -76.97,-222.07 -39.48,-37.77 -87.59,-53.28 -129.4,-56.51l0 -37.24c0,-0.4 0,-0.79 0,-1.19 0,-9.95 0,-19.24 -1.02,-26.35 -1.01,-6.99 -3.9,-18.75 -15.9,-24.14 -12,-5.39 -22.71,0.26 -28.6,4.15 -6,3.96 -12.95,10.14 -20.38,16.75zm31.44 18.17c-2.59,2.23 -5.69,4.96 -9.47,8.32l-91.08 80.97c-18.37,16.33 -30.76,27.39 -38.79,36.83 -7.72,9.07 -9.39,14.36 -9.39,18.87 0,4.51 1.67,9.81 9.39,18.87 8.03,9.44 20.43,20.51 38.79,36.84l91.08 80.96c3.79,3.37 6.88,6.1 9.47,8.33 0.06,-3.42 0.07,-7.55 0.07,-12.61l0 -53.76c0,-9.51 7.7,-17.2 17.19,-17.2 43.86,0 89.43,10.41 128.78,29.59 21.07,10.26 40.68,23.21 57.32,38.71 -8.45,-69.87 -33.45,-114.95 -63.27,-143.5 -37.15,-35.54 -84.08,-47.64 -122.83,-47.64 -9.49,0 -17.19,-7.7 -17.19,-17.19l0 -53.77c0,-5.05 -0.01,-9.19 -0.07,-12.6z"/>
 </g>
</svg>
