<?xml version="1.0" encoding="UTF-8"?>
<!DOCTYPE svg PUBLIC "-//W3C//DTD SVG 1.1//EN" "http://www.w3.org/Graphics/SVG/1.1/DTD/svg11.dtd">
<!-- Creator: CorelDRAW -->
<svg xmlns="http://www.w3.org/2000/svg" xml:space="preserve" width="5.1594mm" height="5.6887mm" version="1.1" style="shape-rendering:geometricPrecision; text-rendering:geometricPrecision; image-rendering:optimizeQuality; fill-rule:evenodd; clip-rule:evenodd"
viewBox="0 0 515.94 568.87"
 xmlns:xlink="http://www.w3.org/1999/xlink"
 xmlns:xodm="http://www.corel.com/coreldraw/odm/2003">
 <defs>
  <style type="text/css">
   <![CDATA[
    .fil1 {fill:#29B4B9}
    .fil0 {fill:#29B4B9;fill-rule:nonzero}
   ]]>
  </style>
 </defs>
 <g id="Layer_x0020_1">
  <metadata id="CorelCorpID_0Corel-Layer"/>
  <path class="fil0" d="M178.59 105.84c-10.95,0 -19.84,8.88 -19.84,19.84 0,10.96 8.89,19.84 19.84,19.84l158.76 0c10.95,0 19.84,-8.88 19.84,-19.84 0,-10.96 -8.89,-19.84 -19.84,-19.84l-158.76 0z"/>
  <path class="fil1" d="M256.45 0c-54.84,0 -98.04,0 -131.8,4.59 -34.66,4.71 -62.31,14.59 -84.04,36.55 -21.7,21.94 -31.43,49.8 -36.08,84.74 -4.53,34.08 -4.53,77.71 -4.53,133.18l0 134.88c0,39.89 0,71.47 2.54,95.25 2.51,23.49 7.9,44.69 23.28,58.87 12.34,11.37 27.95,18.54 44.6,20.45 20.84,2.38 40.29,-7.57 59.46,-21.15 19.39,-13.73 42.91,-34.54 72.59,-60.79l0.97 -0.86c13.76,-12.17 23.08,-20.38 30.85,-26.06 7.51,-5.5 12.1,-7.48 15.96,-8.26 5.1,-1.03 10.34,-1.03 15.44,0 3.86,0.78 8.45,2.76 15.96,8.26 7.77,5.68 17.09,13.89 30.85,26.06l0.97 0.86c29.68,26.25 53.2,47.06 72.59,60.79 19.17,13.58 38.62,23.53 59.45,21.15 16.66,-1.91 32.27,-9.08 44.61,-20.45 15.38,-14.18 20.77,-35.38 23.28,-58.87 2.54,-23.78 2.54,-55.36 2.54,-95.25l0 -134.88c0,-55.47 0,-99.1 -4.53,-133.18 -4.65,-34.94 -14.38,-62.8 -36.08,-84.74 -21.73,-21.96 -49.38,-31.84 -84.04,-36.55 -33.76,-4.59 -76.96,-4.59 -131.8,-4.59l-3.04 0zm-187.63 69.05c13.15,-13.28 31,-21.03 61.18,-25.13 30.77,-4.19 71.28,-4.23 127.97,-4.23 56.69,0 97.19,0.04 127.97,4.23 30.18,4.1 48.03,11.85 61.18,25.13 13.17,13.32 20.87,31.45 24.95,62.06 4.14,31.16 4.18,72.15 4.18,129.44l0 132.12c0,41.44 -0.03,70.89 -2.31,92.3 -2.35,21.94 -6.67,30.18 -10.72,33.9 -6.18,5.7 -13.96,9.26 -22.22,10.2 -5.28,0.61 -14.13,-1.43 -32,-14.09 -17.42,-12.34 -39.35,-31.7 -70.21,-58.99l-0.69 -0.62c-12.89,-11.4 -23.58,-20.86 -33.02,-27.76 -9.87,-7.22 -19.83,-12.76 -31.56,-15.13 -10.26,-2.06 -20.84,-2.06 -31.1,0 -11.73,2.37 -21.69,7.91 -31.56,15.13 -9.44,6.9 -20.13,16.36 -33.02,27.76l-0.69 0.62c-30.86,27.29 -52.79,46.65 -70.21,58.99 -17.87,12.66 -26.72,14.7 -32,14.09 -8.26,-0.94 -16.04,-4.5 -22.22,-10.2 -4.05,-3.72 -8.37,-11.96 -10.72,-33.9 -2.28,-21.41 -2.31,-50.86 -2.31,-92.3l0 -132.12c0,-57.29 0.04,-98.28 4.18,-129.44 4.08,-30.61 11.78,-48.74 24.95,-62.06z"/>
 </g>
</svg>
