<?xml version="1.0" encoding="UTF-8"?>
<!DOCTYPE svg PUBLIC "-//W3C//DTD SVG 1.1//EN" "http://www.w3.org/Graphics/SVG/1.1/DTD/svg11.dtd">
<!-- Creator: CorelDRAW -->
<svg xmlns="http://www.w3.org/2000/svg" xml:space="preserve" width="4.7405mm" height="4.7405mm" version="1.1" style="shape-rendering:geometricPrecision; text-rendering:geometricPrecision; image-rendering:optimizeQuality; fill-rule:evenodd; clip-rule:evenodd"
viewBox="0 0 471.85 471.85"
 xmlns:xlink="http://www.w3.org/1999/xlink"
 xmlns:xodm="http://www.corel.com/coreldraw/odm/2003">
 <defs>
  <style type="text/css">
   <![CDATA[
    .fil1 {fill:#29B4B9}
    .fil0 {fill:#29B4B9;fill-rule:nonzero}
   ]]>
  </style>
 </defs>
 <g id="Layer_x0020_1">
  <metadata id="CorelCorpID_0Corel-Layer"/>
  <path class="fil0" d="M170.09 235.93c0,12.12 -9.82,21.95 -21.95,21.95 -12.11,0 -21.95,-9.82 -21.95,-21.95 0,-12.12 9.83,-21.95 21.95,-21.95 12.12,0 21.95,9.82 21.95,21.95z"/>
  <path class="fil0" d="M257.88 235.93c0,12.12 -9.82,21.95 -21.95,21.95 -12.12,0 -21.95,-9.82 -21.95,-21.95 0,-12.12 9.82,-21.95 21.95,-21.95 12.12,0 21.95,9.82 21.95,21.95z"/>
  <path class="fil0" d="M345.66 235.93c0,12.12 -9.82,21.95 -21.95,21.95 -12.12,0 -21.95,-9.82 -21.95,-21.95 0,-12.12 9.82,-21.95 21.95,-21.95 12.12,0 21.95,9.82 21.95,21.95z"/>
  <path class="fil1" d="M471.85 235.93c0,-130.3 -105.63,-235.93 -235.92,-235.93 -130.3,0 -235.93,105.63 -235.93,235.93 0,37.71 8.87,73.4 24.64,105.05 2.35,4.73 2.85,9.55 1.76,13.61l-13.07 48.85c-8.95,33.44 21.65,64.04 55.09,55.09l48.85 -13.08c4.05,-1.08 8.88,-0.59 13.6,1.77 31.66,15.77 67.35,24.63 105.06,24.63 130.29,0 235.92,-105.63 235.92,-235.92zm-235.92 -203c112.12,0 203,90.89 203,203 0,112.12 -90.89,203 -203,203 -32.51,0 -63.19,-7.62 -90.38,-21.17 -10.92,-5.44 -23.97,-7.53 -36.79,-4.1l-48.85 13.07c-8.98,2.4 -17.18,-5.81 -14.78,-14.78l13.07 -48.85c3.43,-12.82 1.33,-25.88 -4.1,-36.79 -13.55,-27.2 -21.17,-57.88 -21.17,-90.38 0,-112.12 90.89,-203 203,-203z"/>
 </g>
</svg>
