<?xml version="1.0" encoding="UTF-8"?>
<!DOCTYPE svg PUBLIC "-//W3C//DTD SVG 1.1//EN" "http://www.w3.org/Graphics/SVG/1.1/DTD/svg11.dtd">
<!-- Creator: CorelDRAW -->
<svg xmlns="http://www.w3.org/2000/svg" xml:space="preserve" width="5.1595mm" height="5.6886mm" version="1.1" style="shape-rendering:geometricPrecision; text-rendering:geometricPrecision; image-rendering:optimizeQuality; fill-rule:evenodd; clip-rule:evenodd"
viewBox="0 0 515.96 568.87"
 xmlns:xlink="http://www.w3.org/1999/xlink"
 xmlns:xodm="http://www.corel.com/coreldraw/odm/2003">
 <defs>
  <style type="text/css">
   <![CDATA[
    .fil1 {fill:#29B4B9}
    .fil0 {fill:#29B4B9;fill-rule:nonzero}
   ]]>
  </style>
 </defs>
 <g id="Layer_x0020_1">
  <metadata id="CorelCorpID_0Corel-Layer"/>
  <path class="fil0" d="M85.19 298.47c-7.75,-7.75 -7.75,-20.31 0,-28.06l52.92 -52.92c7.74,-7.75 20.31,-7.75 28.06,0 7.75,7.75 7.75,20.31 0,28.06l-19.04 19.05 190.22 0c10.95,0 19.84,8.88 19.84,19.84 0,10.96 -8.89,19.84 -19.84,19.84l-190.22 0 19.04 19.05c7.75,7.75 7.75,20.31 0,28.06 -7.75,7.75 -20.32,7.75 -28.06,0l-52.92 -52.92z"/>
  <path class="fil1" d="M309.45 0l29.36 0c36.19,0 65.35,0 88.29,3.09 23.82,3.2 43.87,10.05 59.79,25.97 15.93,15.93 22.78,35.98 25.98,59.8 3.09,22.94 3.08,52.1 3.08,88.28l0 214.58c0,36.18 0.01,65.35 -3.08,88.28 -3.2,23.82 -10.05,43.87 -25.98,59.8 -15.92,15.92 -35.97,22.77 -59.79,25.97 -22.94,3.09 -52.1,3.09 -88.29,3.09l-29.36 0c-36.18,0 -65.35,0 -88.29,-3.09 -23.81,-3.2 -43.87,-10.05 -59.79,-25.97 -10.56,-10.56 -17.14,-22.95 -21.31,-37.09 -25.18,-0.04 -46.15,-0.31 -63.14,-2.6 -20.21,-2.71 -37.73,-8.6 -51.72,-22.58 -13.99,-13.99 -19.87,-31.52 -22.59,-51.73 -2.6,-19.34 -2.6,-43.83 -2.6,-73.8l0 -135.14c0,-29.97 0,-54.46 2.6,-73.8 2.72,-20.21 8.6,-37.74 22.59,-51.73 13.99,-13.98 31.51,-19.86 51.72,-22.58 16.99,-2.29 37.96,-2.56 63.14,-2.6 4.17,-14.14 10.75,-26.53 21.31,-37.09 15.92,-15.92 35.98,-22.77 59.79,-25.97 22.94,-3.09 52.11,-3.09 88.29,-3.09zm-177.09 416.84c0.09,17.06 0.37,32.42 1.34,46.17 -22.08,-0.08 -38.49,-0.47 -51.49,-2.22 -15.81,-2.13 -23.56,-5.93 -28.95,-11.32 -5.38,-5.38 -9.19,-13.14 -11.32,-28.95 -2.2,-16.38 -2.24,-38.19 -2.24,-69.93l0 -132.3c0,-31.74 0.04,-53.55 2.24,-69.93 2.13,-15.81 5.94,-23.57 11.32,-28.95 5.39,-5.39 13.14,-9.19 28.95,-11.32 13,-1.75 29.41,-2.13 51.49,-2.22 -0.97,13.75 -1.25,29.11 -1.34,46.17 -0.07,10.96 8.77,19.89 19.73,19.95 10.96,0.06 19.89,-8.77 19.95,-19.73 0.16,-28.93 0.91,-49.44 3.77,-65 2.76,-15 7.18,-23.68 13.62,-30.12 7.33,-7.33 17.61,-12.1 37.02,-14.71 19.99,-2.69 46.47,-2.73 84.45,-2.73l26.46 0c37.98,0 64.47,0.04 84.45,2.73 19.42,2.61 29.7,7.38 37.02,14.71 7.32,7.32 12.1,17.6 14.71,37.01 2.68,19.99 2.73,46.48 2.73,84.46l0 211.66c0,37.98 -0.05,64.47 -2.73,84.46 -2.61,19.41 -7.39,29.69 -14.71,37.01 -7.32,7.33 -17.6,12.1 -37.02,14.71 -19.98,2.69 -46.47,2.73 -84.45,2.73l-26.46 0c-37.98,0 -64.46,-0.04 -84.45,-2.73 -19.41,-2.61 -29.69,-7.38 -37.02,-14.71 -6.44,-6.44 -10.86,-15.12 -13.62,-30.11 -2.86,-15.57 -3.61,-36.08 -3.77,-65.01 -0.06,-10.96 -8.99,-19.79 -19.95,-19.73 -10.96,0.06 -19.8,8.99 -19.73,19.95z"/>
 </g>
</svg>
