<?xml version="1.0" encoding="UTF-8"?>
<!DOCTYPE svg PUBLIC "-//W3C//DTD SVG 1.1//EN" "http://www.w3.org/Graphics/SVG/1.1/DTD/svg11.dtd">
<!-- Creator: CorelDRAW -->
<svg xmlns="http://www.w3.org/2000/svg" xml:space="preserve" width="5.2916mm" height="5.2916mm" version="1.1" style="shape-rendering:geometricPrecision; text-rendering:geometricPrecision; image-rendering:optimizeQuality; fill-rule:evenodd; clip-rule:evenodd"
viewBox="0 0 529.16 529.16"
 xmlns:xlink="http://www.w3.org/1999/xlink"
 xmlns:xodm="http://www.corel.com/coreldraw/odm/2003">
 <defs>
  <style type="text/css">
   <![CDATA[
    .str0 {stroke:#29B4B9;stroke-width:39.69;stroke-miterlimit:22.9256}
    .str1 {stroke:#29B4B9;stroke-width:39.69;stroke-linecap:round;stroke-miterlimit:22.9256}
    .fil0 {fill:none}
   ]]>
  </style>
   <clipPath id="id0">
    <path d="M-0 529.16l529.16 0 0 -529.16 -529.16 0 0 529.16z"/>
   </clipPath>
 </defs>
 <g id="Layer_x0020_1">
  <metadata id="CorelCorpID_0Corel-Layer"/>
  <g>
  </g>
  <g style="clip-path:url(#id0)">
   <g id="_3398811984">
    <path class="fil0 str0" d="M44.1 264.58c0,-103.94 0,-155.91 32.29,-188.2 32.28,-32.29 84.25,-32.29 188.19,-32.29 103.94,0 155.91,0 188.2,32.29 32.29,32.29 32.29,84.26 32.29,188.2 0,103.93 0,155.9 -32.29,188.19 -32.29,32.29 -84.26,32.29 -188.2,32.29 -103.94,0 -155.91,0 -188.19,-32.29 -32.29,-32.29 -32.29,-84.26 -32.29,-188.19z"/>
    <circle class="fil0 str0" cx="352.78" cy="176.39" r="44.09"/>
    <path class="fil0 str1" d="M44.1 275.61l38.62 -33.79c20.09,-17.58 50.37,-16.57 69.25,2.31l94.58 94.58c15.15,15.15 39.01,17.22 56.54,4.9l6.57 -4.63c25.23,-17.73 59.36,-15.67 82.29,4.96l71.07 63.96"/>
   </g>
  </g>
  <polygon class="fil0" points="-0,529.16 529.16,529.16 529.16,0 -0,0 "/>
 </g>
</svg>
