<?xml version="1.0" encoding="UTF-8"?>
<!DOCTYPE svg PUBLIC "-//W3C//DTD SVG 1.1//EN" "http://www.w3.org/Graphics/SVG/1.1/DTD/svg11.dtd">
<!-- Creator: CorelDRAW -->
<svg xmlns="http://www.w3.org/2000/svg" xml:space="preserve" width="5.6886mm" height="5.6886mm" version="1.1" style="shape-rendering:geometricPrecision; text-rendering:geometricPrecision; image-rendering:optimizeQuality; fill-rule:evenodd; clip-rule:evenodd"
viewBox="0 0 568.86 568.86"
 xmlns:xlink="http://www.w3.org/1999/xlink"
 xmlns:xodm="http://www.corel.com/coreldraw/odm/2003">
 <defs>
  <style type="text/css">
   <![CDATA[
    .fil0 {fill:#29B4B9}
   ]]>
  </style>
 </defs>
 <g id="Layer_x0020_1">
  <metadata id="CorelCorpID_0Corel-Layer"/>
  <path class="fil0" d="M271.2 39.69c-127.86,0 -231.51,103.65 -231.51,231.51 0,127.86 103.65,231.51 231.51,231.51 127.86,0 231.51,-103.65 231.51,-231.51 0,-127.86 -103.65,-231.51 -231.51,-231.51zm-271.2 231.51c0,-149.78 121.42,-271.2 271.2,-271.2 149.78,0 271.2,121.42 271.2,271.2 0,67.75 -24.84,129.69 -65.91,177.22l86.55 86.56c7.75,7.75 7.75,20.31 0,28.06 -7.75,7.75 -20.31,7.75 -28.06,0l-86.56 -86.55c-47.53,41.07 -109.47,65.91 -177.22,65.91 -149.78,0 -271.2,-121.42 -271.2,-271.2z"/>
 </g>
</svg>
