<?xml version="1.0" encoding="UTF-8"?>
<!DOCTYPE svg PUBLIC "-//W3C//DTD SVG 1.1//EN" "http://www.w3.org/Graphics/SVG/1.1/DTD/svg11.dtd">
<!-- Creator: CorelDRAW -->
<svg xmlns="http://www.w3.org/2000/svg" xml:space="preserve" width="4.0767mm" height="3.7206mm" version="1.1" style="shape-rendering:geometricPrecision; text-rendering:geometricPrecision; image-rendering:optimizeQuality; fill-rule:evenodd; clip-rule:evenodd"
viewBox="0 0 392.58 358.29"
 xmlns:xlink="http://www.w3.org/1999/xlink"
 xmlns:xodm="http://www.corel.com/coreldraw/odm/2003">
 <defs>
  <style type="text/css">
   <![CDATA[
    .fil0 {fill:#29B4B9}
   ]]>
  </style>
 </defs>
 <g id="Layer_x0020_1">
  <metadata id="CorelCorpID_0Corel-Layer"/>
  <path class="fil0" d="M252.12 21.42c0.27,0.24 0.54,0.48 0.82,0.72l85.22 75.76c15.9,14.14 29.08,25.86 38.13,36.49 9.51,11.18 16.28,23.22 16.28,38.11 0,14.9 -6.77,26.93 -16.28,38.11 -9.05,10.63 -22.24,22.35 -38.13,36.49l-85.22 75.75c-0.28,0.25 -0.55,0.49 -0.82,0.73 -6.89,6.12 -13.32,11.84 -18.87,15.5 -5.45,3.61 -15.37,8.84 -26.48,3.84 -11.11,-4.99 -13.79,-15.87 -14.72,-22.34 -0.94,-6.59 -0.94,-15.19 -0.94,-24.41 0,-0.37 0,-0.73 0,-1.1l0 -33.3c-30.82,2.13 -62.05,10.3 -89.36,23.62 -32.13,15.65 -57.78,37.85 -71.7,64.37 -3.41,6.49 -10.8,9.81 -17.91,8.06 -7.12,-1.75 -12.11,-8.14 -12.11,-15.47 0,-100.24 29.33,-165.51 71.27,-205.63 36.55,-34.98 81.1,-49.33 119.82,-52.33l0 -34.48c0,-0.37 0,-0.73 0,-1.1 0,-9.22 0,-17.82 0.94,-24.4 0.93,-6.47 3.61,-17.36 14.72,-22.35 11.11,-4.99 21.03,0.24 26.48,3.84 5.56,3.67 11.98,9.39 18.87,15.51zm-29.11 16.82c2.4,2.06 5.27,4.59 8.77,7.7l84.34 74.98c17.02,15.12 28.49,25.37 35.92,34.1 7.15,8.4 8.7,13.3 8.7,17.47 0,4.18 -1.55,9.08 -8.7,17.47 -7.43,8.74 -18.9,18.99 -35.92,34.11l-84.34 74.97c-3.51,3.12 -6.37,5.65 -8.77,7.71 -0.06,-3.17 -0.07,-6.99 -0.07,-11.68l0 -49.78c0,-8.8 -7.13,-15.93 -15.92,-15.93 -40.61,0 -82.81,9.64 -119.25,27.4 -19.51,9.5 -37.67,21.49 -53.08,35.84 7.83,-64.69 30.97,-106.44 58.59,-132.87 34.4,-32.91 77.86,-44.11 113.74,-44.11 8.79,0 15.92,-7.13 15.92,-15.92l0 -49.79c0,-4.68 0.01,-8.51 0.07,-11.67z"/>
 </g>
</svg>
